<?xml version="1.0" encoding="UTF-8"?>
<svg width="43px" height="42px" viewBox="0 0 43 42" version="1.1" xmlns="http://www.w3.org/2000/svg" xmlns:xlink="http://www.w3.org/1999/xlink">
    <title>IG</title>
    <g id="Page-1" stroke="none" stroke-width="1" fill="none" fill-rule="evenodd">
        <g id="ContactUs" transform="translate(-560.000000, -860.000000)" fill="#1A4181">
            <path d="M583.097604,859.996719 L583.759211,859.997381 L584.070035,859.99785 L584.070035,859.99785 L584.654019,859.999086 C586.933165,860.004956 588.039643,860.021296 589.088124,860.057323 L589.418595,860.069365 C589.804929,860.084203 590.199318,860.101844 590.657502,860.122751 C592.893012,860.224793 594.419645,860.579774 595.755615,861.098989 C597.136688,861.635711 598.307923,862.353842 599.47549,863.521409 C600.643058,864.688977 601.361189,865.860212 601.897911,867.241285 C602.417126,868.577255 602.772107,870.103888 602.874149,872.339398 C602.892733,872.746673 602.908736,873.103541 602.922484,873.449152 L602.932378,873.706861 L602.942073,873.982463 C602.980572,875.135757 602.995661,876.390129 602.999489,879.215056 L602.999895,882.435294 C602.99683,885.506333 602.982112,886.815085 602.942073,888.014511 L602.932378,888.290113 L602.932378,888.290113 L602.922484,888.547822 C602.908736,888.893433 602.892733,889.250301 602.874149,889.657576 C602.772107,891.893086 602.417126,893.419719 601.897911,894.755689 C601.361189,896.136762 600.643058,897.307997 599.47549,898.475564 C598.307923,899.643132 597.136688,900.361263 595.755615,900.897985 C594.419645,901.4172 592.893012,901.772181 590.657502,901.874223 C590.301137,901.890484 589.983364,901.904767 589.677956,901.917291 L589.418595,901.9276 C588.135413,901.976864 586.941083,901.995173 583.793136,901.999467 L580.561607,901.999888 C577.490577,901.996831 576.181858,901.982149 574.982425,901.942131 L574.706821,901.932441 L574.706821,901.932441 L574.449108,901.922551 C574.103492,901.908808 573.746614,901.892807 573.339324,901.874223 C571.103814,901.772181 569.577181,901.4172 568.241211,900.897985 C566.860138,900.361263 565.688903,899.643132 564.521335,898.475564 C563.353768,897.307997 562.635637,896.136678 562.098915,894.755689 C561.579699,893.419719 561.224719,891.893086 561.122677,889.657576 C561.104093,889.250301 561.088092,888.893433 561.074349,888.547822 L561.064459,888.290113 C561.061301,888.204506 561.058278,888.11899 561.055386,888.032955 L561.047099,887.772678 C561.018114,886.808126 561.004362,885.706658 560.999088,883.654093 L560.997855,883.070109 L560.997387,882.759285 L560.997387,882.759285 L560.996728,882.097678 L560.996728,879.899296 L560.996728,879.899296 L560.997387,879.237689 L560.997855,878.926864 L560.997855,878.926864 L560.999088,878.342881 C561.005321,875.917123 561.023396,874.819756 561.064459,873.706861 L561.074349,873.449152 C561.088092,873.103541 561.104093,872.746673 561.122677,872.339398 C561.224719,870.103888 561.579699,868.577255 562.098915,867.241285 C562.635637,865.860212 563.353768,864.688977 564.521335,863.521409 C565.688903,862.353842 566.860138,861.635711 568.241211,861.098989 C569.577181,860.579774 571.103814,860.224793 573.339324,860.122751 C573.746614,860.104167 574.103492,860.088163 574.449108,860.074415 L574.706821,860.064522 C575.819728,860.023441 576.917069,860.005333 579.342814,859.999086 L579.926794,859.99785 L580.237617,859.997381 L580.237617,859.997381 L580.899223,859.996719 L583.097604,859.996719 L583.097604,859.996719 Z M582.37318,863.780634 L581.623646,863.780634 L581.623646,863.780634 L580.26864,863.781513 C577.611467,863.784772 576.377269,863.797497 575.28795,863.831172 L574.979554,863.841373 C574.519562,863.85756 574.063823,863.877796 573.511729,863.902984 C571.46413,863.99644 570.352086,864.338582 569.612029,864.626117 C568.631706,865.007109 567.931999,865.462297 567.197111,866.197185 C566.462223,866.932073 566.007035,867.63178 565.626127,868.612019 C565.338507,869.35216 564.996366,870.464204 564.90291,872.511886 C564.81335,874.474813 564.786406,875.219689 564.781439,879.268714 L564.780664,880.263816 L564.780664,881.733158 L564.780664,881.733158 L564.781439,882.72826 C564.78475,885.427611 564.797829,886.658454 564.832717,887.760718 L564.841161,888.013414 C564.857371,888.474742 564.87765,888.931504 564.90291,889.485171 C564.996366,891.53277 565.338507,892.644814 565.626127,893.384954 C566.007035,894.365194 566.462223,895.064901 567.197111,895.799789 C567.931999,896.534677 568.631706,896.989865 569.612029,897.370773 C570.352086,897.658392 571.46413,898.000534 573.511812,898.09399 C573.914403,898.112361 574.265753,898.128097 574.604893,898.14155 L574.983333,898.155739 C576.152648,898.196831 577.351461,898.211772 580.232686,898.215417 L583.410212,898.215801 C586.332916,898.213124 587.616273,898.200412 588.760823,898.164183 L589.013493,898.155739 L589.265251,898.146488 C589.644037,898.13199 590.032099,898.114657 590.485014,898.09399 C592.532696,898.000534 593.64474,897.658392 594.38488,897.370773 C595.36512,896.989865 596.064827,896.534677 596.799715,895.799789 C597.534603,895.064901 597.989791,894.365194 598.370699,893.384954 C598.658318,892.644814 599.00046,891.53277 599.093916,889.485088 C599.114583,889.032105 599.131916,888.643988 599.146414,888.265163 L599.155665,888.013379 L599.164109,887.760689 C599.198889,886.661841 599.211995,885.435183 599.215356,882.753135 L599.215727,879.586771 C599.212842,876.437909 599.198309,875.191982 599.155262,873.972123 L599.143897,873.666615 C599.129921,873.308288 599.1134,872.938874 599.093916,872.511803 C599.00046,870.464204 598.658318,869.35216 598.370699,868.612019 C597.989791,867.63178 597.534603,866.932073 596.799715,866.197185 C596.064827,865.462297 595.36512,865.007109 594.38488,864.626117 C593.64474,864.338582 592.532696,863.99644 590.485014,863.902984 C590.132694,863.886909 589.819614,863.872852 589.519625,863.860576 L589.265089,863.850486 L588.887302,863.836914 L588.887302,863.836914 L588.632786,863.828862 C587.561523,863.796912 586.323715,863.784697 583.728186,863.781513 L582.37318,863.780634 Z M582.040125,870.24738 C588.000762,870.24738 592.832861,875.079479 592.832861,881.040116 C592.832861,887.000753 588.000762,891.832852 582.040125,891.832852 C576.079488,891.832852 571.24739,887.000753 571.24739,881.040116 C571.24739,875.079479 576.079488,870.24738 582.040125,870.24738 Z M582.040125,874.034286 C578.170959,874.034286 575.034295,877.17095 575.034295,881.040116 C575.034295,884.909282 578.170959,888.045946 582.040125,888.045946 C585.909292,888.045946 589.045955,884.909282 589.045955,881.040116 C589.045955,877.17095 585.909292,874.034286 582.040125,874.034286 Z M593.166269,867.247083 C594.54713,867.247083 595.666475,868.366428 595.666475,869.747289 C595.666475,871.128151 594.54713,872.247578 593.166269,872.247578 C591.785407,872.247578 590.66598,871.128151 590.66598,869.747289 C590.66598,868.366428 591.785407,867.247083 593.166269,867.247083 Z" id="IG"></path>
        </g>
    </g>
</svg>