<?xml version="1.0" encoding="UTF-8"?>
<svg width="42px" height="42px" viewBox="0 0 42 42" version="1.1" xmlns="http://www.w3.org/2000/svg" xmlns:xlink="http://www.w3.org/1999/xlink">
    <title>Linkedin</title>
    <g id="Page-1" stroke="none" stroke-width="1" fill="none" fill-rule="evenodd">
        <g id="ContactUs" transform="translate(-489.000000, -860.000000)" fill-rule="nonzero">
            <g id="Linkedin" transform="translate(489.000000, 860.000000)">
                <rect id="Rectangle" fill="#1A4181" transform="translate(21.000000, 21.000257) scale(-1, 1) translate(-21.000000, -21.000257) " x="0" y="0.00235746" width="42" height="41.9958" rx="3"></rect>
                <path d="M12.43832,35.2485 L12.43832,16.16286 L6.09464,16.16286 L6.09464,35.2485 L12.43832,35.2485 Z M9.19971725,13.3 C11.3696946,13.3 12.72042,11.7443429 12.72042,9.80033436 C12.6799786,7.81245741 11.369777,6.3 9.24091675,6.3 C7.1123449,6.3 5.72042,7.8124797 5.72042,9.80033436 C5.72042,11.7444544 7.07079521,13.3 9.15913575,13.3 L9.19957924,13.3 L9.19971725,13.3 Z" id="Shape" fill="#FFFFFF"></path>
                <path d="M15.94952,35.2485 L22.2932,35.2485 L22.2932,24.59016 C22.2932,24.019737 22.3344272,23.449902 22.5019358,23.042145 C22.9605338,21.902454 24.0043178,20.722065 25.7567258,20.722065 C28.0522358,20.722065 28.9705658,22.472268 28.9705658,25.037985 L28.9705658,35.2485 L35.3138258,35.2485 L35.3138258,24.304875 C35.3138258,18.442515 32.1841958,15.714825 28.0104458,15.714825 C24.5882858,15.714825 23.0857358,17.627694 22.2509858,18.930555 L22.2933428,18.930555 L22.2933428,16.162545 L15.94952,16.162545 C16.0329089,17.953425 15.94952,35.248185 15.94952,35.248185 L15.94952,35.2485 Z" id="Path" fill="#FFFFFF"></path>
            </g>
        </g>
    </g>
</svg>