<?xml version="1.0" encoding="UTF-8"?>
<svg width="42px" height="42px" viewBox="0 0 42 42" version="1.1" xmlns="http://www.w3.org/2000/svg" xmlns:xlink="http://www.w3.org/1999/xlink">
    <title>FB</title>
    <g id="Page-1" stroke="none" stroke-width="1" fill="none" fill-rule="evenodd">
        <g id="ContactUs" transform="translate(-418.000000, -860.000000)" fill="#1A4181">
            <path d="M460,881 C460,869.402012 450.597988,860 439,860 C427.402012,860 418,869.402012 418,881 C418,891.481707 425.679396,900.169473 435.71875,901.744883 L435.71875,887.070312 L430.386719,887.070312 L430.386719,881 L435.71875,881 L435.71875,876.373437 C435.71875,871.110312 438.853902,868.203125 443.650762,868.203125 C445.948334,868.203125 448.351562,868.613281 448.351562,868.613281 L448.351562,873.78125 L445.703512,873.78125 C443.094795,873.78125 442.28125,875.400014 442.28125,877.060736 L442.28125,881 L448.105469,881 L447.174414,887.070312 L442.28125,887.070312 L442.28125,901.744883 C452.320604,900.169473 460,891.481707 460,881" id="FB"></path>
        </g>
    </g>
</svg>