<?xml version="1.0" encoding="UTF-8"?>
<svg width="43px" height="35px" viewBox="0 0 43 35" version="1.1" xmlns="http://www.w3.org/2000/svg" xmlns:xlink="http://www.w3.org/1999/xlink">
    <title>Path</title>
    <g id="Page-1" stroke="none" stroke-width="1" fill="none" fill-rule="evenodd">
        <g id="ContactUs" transform="translate(-345.000000, -864.000000)" fill="#1A4181" fill-rule="nonzero">
            <path d="M358.759022,898.173202 C374.618537,898.173202 383.290312,885.03144 383.290312,873.641913 C383.290312,873.266434 383.290312,872.890955 383.272432,872.533356 C384.953148,871.317519 386.419303,869.797723 387.5815,868.063368 C386.043824,868.742807 384.380989,869.207685 382.628754,869.422245 C384.416749,868.349448 385.775625,866.668732 386.419303,864.648298 C384.756468,865.631695 382.914833,866.346893 380.948039,866.740252 C379.374603,865.059537 377.13961,864.0225 374.654297,864.0225 C369.898231,864.0225 366.036162,867.884569 366.036162,872.640635 C366.036162,873.320073 366.107681,873.981632 366.268601,874.60743 C359.098741,874.249831 352.75136,870.816881 348.495932,865.595936 C347.762854,866.865412 347.333735,868.349448 347.333735,869.922883 C347.333735,872.908835 348.853531,875.555067 351.177924,877.092743 C349.765408,877.056983 348.442292,876.663624 347.280095,876.019946 C347.280095,876.055706 347.280095,876.091466 347.280095,876.127225 C347.280095,880.311133 350.248167,883.779844 354.199635,884.584441 C353.484437,884.781121 352.7156,884.8884 351.928882,884.8884 C351.374603,884.8884 350.838205,884.834761 350.301807,884.727481 C351.392483,888.160431 354.575114,890.645744 358.347784,890.717264 C355.397592,893.023777 351.678563,894.400533 347.637694,894.400533 C346.940376,894.400533 346.260938,894.364773 345.5815,894.275374 C349.354169,896.742807 353.895676,898.173202 358.759022,898.173202" id="Path"></path>
        </g>
    </g>
</svg>