<?xml version="1.0" encoding="utf-8"?>
<!-- Generator: Adobe Illustrator 22.1.0, SVG Export Plug-In . SVG Version: 6.00 Build 0)  -->
<svg version="1.1" id="Cloud_x5F_02" xmlns="http://www.w3.org/2000/svg" xmlns:xlink="http://www.w3.org/1999/xlink" x="0px"
	 y="0px" viewBox="0 0 1450 1000" style="enable-background:new 0 0 1450 1000;" xml:space="preserve">
<metadata><?xpacket begin="﻿" id="W5M0MpCehiHzreSzNTczkc9d"?>
<x:xmpmeta xmlns:x="adobe:ns:meta/" x:xmptk="Adobe XMP Core 5.6-c143 79.161356, 2017/09/07-01:11:22        ">
   <rdf:RDF xmlns:rdf="http://www.w3.org/1999/02/22-rdf-syntax-ns#">
      <rdf:Description rdf:about=""/>
   </rdf:RDF>
</x:xmpmeta>
                                                                                                    
                                                                                                    
                                                                                                    
                                                                                                    
                                                                                                    
                                                                                                    
                                                                                                    
                                                                                                    
                                                                                                    
                                                                                                    
                                                                                                    
                                                                                                    
                                                                                                    
                                                                                                    
                                                                                                    
                                                                                                    
                                                                                                    
                                                                                                    
                                                                                                    
                                                                                                    
                           
<?xpacket end="w"?></metadata>
<style type="text/css">
	.st0{clip-path:url(#SVGID_2_);}
	.st1{fill:#FFFFFF;}
	.st2{fill:#4BA85D;}
	.st3{fill:#BBBDBF;}
	.st4{fill:#C6E9FA;}
	.st5{fill:#9EC3D6;}
	.st6{fill:#CD4427;}
	.st7{fill:#E69424;}
	.st8{fill:#83C250;}
	.st9{fill:#487D4C;}
	.st10{fill:#D9DCE6;}
	.st11{fill:#3576BB;}
	.st12{fill:#884E3C;}
	.st13{fill:#001C47;}
	.st14{fill:#B48463;}
	.st15{fill:#B93D22;}
	.st16{fill:#A3341A;}
	.st17{fill:#002E5E;}
	.st18{fill:#C7811E;}
	.st19{fill:#231F20;}
	.st20{fill:#C3B28B;}
	.st21{fill:#DDC99C;}
	.st22{fill:#D1D3D4;}
	.st23{fill:#00629D;}
	.st24{fill:#8E9BA2;}
	.st25{fill:#E6E7E8;}
	.st26{fill:#A9B6BE;}
	.st27{fill:#FFCA11;}
	.st28{fill:#DEA417;}
	.st29{opacity:0.5;}
	.st30{opacity:0.3;}
	.st31{fill:#193968;}
	.st32{clip-path:url(#SVGID_4_);}
	.st33{clip-path:url(#SVGID_6_);fill:#B3B3B3;}
	.st34{clip-path:url(#SVGID_6_);}
	.st35{fill:#6B8295;}
	.st36{fill:#808080;}
	.st37{clip-path:url(#SVGID_6_);fill:#FFFFFF;}
	.st38{fill:#4D4D4D;}
	.st39{fill:none;}
	.st40{fill:#F2471F;}
	.st41{fill:#D72E00;}
	.st42{fill:#B3B3B3;}
	.st43{fill:#D1EDFB;}
	.st44{fill:#A97255;}
	.st45{fill:#2A6EA0;}
	.st46{fill:#358ACA;}
	.st47{opacity:0.5;fill:#358ACA;}
	.st48{fill:#C8DCE6;}
	.st49{clip-path:url(#SVGID_8_);}
	.st50{fill:#A1D8EF;}
	.st51{fill:#FFF0A8;}
	.st52{fill:#FFDE76;}
	.st53{fill:#FFE179;}
	.st54{fill:none;stroke:#884E3C;stroke-width:2.9397;stroke-miterlimit:10;}
	.st55{fill:none;stroke:#A1D8EF;stroke-width:2.9397;stroke-miterlimit:10;}
	.st56{opacity:0.8;clip-path:url(#SVGID_8_);}
	.st57{fill:#CD9048;}
	.st58{fill:#B06F2F;}
	.st59{clip-path:url(#SVGID_10_);}
	.st60{opacity:0.8;clip-path:url(#SVGID_10_);}
	.st61{fill:#87451E;}
	.st62{clip-path:url(#SVGID_12_);}
	.st63{fill:#A0351D;}
	.st64{fill:#794533;}
	.st65{fill:#072C38;}
	.st66{clip-path:url(#SVGID_14_);}
	.st67{fill:#1F65AA;}
	.st68{fill:#0079C1;}
	.st69{fill:#0855A1;}
	.st70{fill:#EDB64B;}
	.st71{opacity:0.5;clip-path:url(#SVGID_12_);}
	.st72{clip-path:url(#SVGID_16_);}
	.st73{opacity:0.5;clip-path:url(#SVGID_16_);}
	.st74{clip-path:url(#SVGID_18_);}
</style>
<g>
	<g>
		<g>
			<g>
				<defs>
					<rect id="SVGID_1_" x="355.8" y="276.8" width="310.9" height="214.8"/>
				</defs>
				<clipPath id="SVGID_2_">
					<use xlink:href="#SVGID_1_"  style="overflow:visible;"/>
				</clipPath>
				<g class="st0">
					<g>
						<g>
							<path class="st1" d="M107.1,14.5c0-3.5-2.8-6.3-6.3-6.3h-76c-3.5,0-6.3,2.8-6.3,6.3l0,0c0,3.5,2.8,6.3,6.3,6.3h76
								C104.3,20.7,107.1,17.9,107.1,14.5L107.1,14.5z"/>
						</g>
					</g>
					<rect x="270.4" y="183.8" class="st2" width="531.7" height="341.4"/>
					<g>
						<polygon class="st3" points="563,495.4 498.8,495.4 567.2,426.2 631.4,426.2 						"/>
						<g>
							<rect x="346" y="269.7" class="st4" width="335.7" height="156.5"/>
							<rect x="671.6" y="133.8" class="st5" width="91.5" height="292.4"/>
							<polygon class="st5" points="426.2,366.7 274.9,366.7 274.9,426.2 426.2,426.2 763.1,426.2 763.1,366.7 							"/>
							<polygon class="st6" points="631.4,314 631.4,426.2 567.2,426.2 567.2,316.8 567.2,314 							"/>
							<path class="st7" d="M573.5,366.9c0,3.3,2.7,5.9,5.9,5.9c3.3,0,5.9-2.7,5.9-5.9s-2.7-5.9-5.9-5.9
								C576.2,360.9,573.5,363.6,573.5,366.9z"/>
							<g>
								<rect x="567.2" y="250.8" class="st1" width="64.2" height="43.4"/>
							</g>
							<g>
								<rect x="441.2" y="250.8" class="st1" width="64.2" height="43.4"/>
							</g>
							<g>
								<rect x="315.2" y="250.8" class="st1" width="64.2" height="43.4"/>
							</g>
						</g>
						<g>
						</g>
					</g>
					<g>
						<rect x="231.2" y="398" class="st1" width="231.1" height="65.7"/>
					</g>
					<g>
						<path class="st8" d="M671.6,444.6c19.6,0,35.5-15.9,35.5-35.5h-70.9C636.1,428.8,652,444.6,671.6,444.6z"/>
						<path class="st9" d="M671.6,373.7c-19.6,0-35.5,15.9-35.5,35.5H707C707,389.6,691.2,373.7,671.6,373.7z"/>
					</g>
					<g>
						<path class="st8" d="M526.7,444.6c19.6,0,35.5-15.9,35.5-35.5h-70.9C491.2,428.8,507.1,444.6,526.7,444.6z"/>
						<path class="st9" d="M526.7,373.7c-19.6,0-35.5,15.9-35.5,35.5h70.9C562.1,389.6,546.2,373.7,526.7,373.7z"/>
					</g>
					<g>
						<rect x="349.5" y="323.7" class="st8" width="5.4" height="152.3"/>
						<path class="st8" d="M359.1,362.9c15.8,0,28.7-12.8,28.7-28.7h-57.3C330.5,350,343.3,362.9,359.1,362.9z"/>
						<path class="st9" d="M359.1,305.5c-15.8,0-28.7,12.8-28.7,28.7h57.3C387.8,318.4,375,305.5,359.1,305.5z"/>
						<path class="st8" d="M359.1,433.5c19.6,0,35.5-15.9,35.5-35.5h-70.9C323.7,417.6,339.5,433.5,359.1,433.5z"/>
						<path class="st9" d="M359.1,362.6c-19.6,0-35.5,15.9-35.5,35.5h70.9C394.6,378.4,378.7,362.6,359.1,362.6z"/>
					</g>
					<g>
						<polygon class="st10" points="454.7,361.1 379.7,361.1 379.7,352.8 370.4,352.8 370.4,361.1 361.5,361.1 361.5,370.4 
							370.4,370.4 370.4,469.1 379.7,469.1 379.7,370.4 454.7,370.4 						"/>
						<rect x="384.5" y="374.8" class="st11" width="68.3" height="45.4"/>
						<path class="st1" d="M453.4,420.8h-69.6v-46.7h69.6V420.8z M385.1,419.5h67v-44.1h-67V419.5z"/>
						<g>
							<path class="st1" d="M391.9,400.2l2.6-1.6c0.8,1.3,2.1,2,3.4,2c1.1,0,1.9-0.3,1.9-1.1c0-0.8-1-1.2-2.3-1.5
								c-2.1-0.5-5-1.1-5-4.1c0-2.7,2-4.1,5-4.1c2.8,0,4.4,1.3,5.5,2.6l-2.4,1.9c-0.7-0.9-2-1.6-3.1-1.6c-1,0-1.5,0.3-1.5,1
								c0,0.9,1,1.2,2.3,1.5c2.1,0.5,5,1.2,5,4.1c0,2.1-1.5,4.2-5.5,4.2C394.8,403.4,393,402,391.9,400.2z"/>
							<path class="st1" d="M405.3,396.6c0-4.8,3.3-6.8,6.5-6.8c3.2,0,6.4,2,6.4,6.8c0,4.8-3.3,6.8-6.4,6.8
								C408.5,403.4,405.3,401.4,405.3,396.6z M414.6,396.6c0-2.4-1-3.9-2.9-3.9c-1.9,0-2.9,1.5-2.9,3.9c0,2.4,1,4,2.9,4
								C413.6,400.5,414.6,399,414.6,396.6z"/>
							<path class="st1" d="M420.9,390h3.5v10.3h5.5v2.9h-9.1V390z"/>
							<path class="st1" d="M432.3,390h4.3c3.9,0,7.2,1.5,7.2,6.5c0,5.2-3.4,6.6-7.2,6.6h-4.3V390z M436.8,400.3
								c2.7,0,3.5-1.1,3.5-3.8c0-2.4-0.8-3.6-3.5-3.6h-0.9v7.3H436.8z"/>
						</g>
					</g>
					<g>
						<g>
							<path class="st12" d="M520.3,384.4L520.3,384.4l-8.7-6.7l-9.1,12.1l10,7.6c0,0,0,0,0,0l4.7,3.6c1,0.8,2.5,0.7,3.4-0.1
								c0.3-0.2,0.4-0.6,0.4-1l0.1-13.8C521.2,385.4,520.8,384.8,520.3,384.4z"/>
							
								<ellipse transform="matrix(0.619 -0.7854 0.7854 0.619 -104.54 514.6378)" class="st13" cx="478.2" cy="365.1" rx="7.6" ry="7.6"/>
							<polygon class="st13" points="501.9,389.2 509.5,379.3 482.7,359 473,359.4 469.2,364.4 							"/>
							
								<rect x="497.6" y="381.3" transform="matrix(0.6045 -0.7966 0.7966 0.6045 -107.3469 554.9502)" class="st13" width="15.1" height="8.6"/>
						</g>
						<g>
							<path class="st14" d="M515.5,410.8h-10v3.1v0.1v3.8c0,1,0.8,1.8,1.8,1.8h6.3c1,0,1.8-0.8,1.8-1.8V414h0V410.8z"/>
							<path class="st15" d="M510.5,357.6c-2.8,0-5,2.2-5,5v48.2h10v-48.2C515.5,359.8,513.2,357.6,510.5,357.6z"/>
							<rect x="505.5" y="403.3" class="st16" width="10" height="7.5"/>
						</g>
						<path class="st14" d="M491.8,340.7c0.5-0.9,0.7-3.9,0.8-7.7h12.3c0.3,2.4,2.4,4.3,5.2,5v7.3c0,6.8-5.5,12.3-12.3,12.3
							s-12.3-5.5-12.3-12.3v-2.1C487.7,343.2,490.7,342.7,491.8,340.7z"/>
						<rect x="497.2" y="409.2" class="st13" width="12.6" height="62.5"/>
						<rect x="483.3" y="409.2" class="st17" width="13.9" height="62.5"/>
						<path class="st18" d="M517.3,471c0-2.6-2.1-4.7-4.6-4.8v0h-17v9.7h17v0C515.2,475.7,517.3,473.6,517.3,471z"/>
						<path class="st7" d="M505,471c0-2.6-2.1-4.7-4.6-4.8v0h-17v9.7h17v0C502.9,475.7,505,473.6,505,471z"/>
						<path class="st19" d="M509.3,333c-0.6-1.7-1.6-3.1-2.9-4.4c-1.8-1.7-4-2.9-6.6-3.3c-0.1,0-0.2,0-0.3-0.1
							c-0.2,0-0.4-0.1-0.6-0.1c-0.3,0-0.5,0-0.8,0c-0.1,0-0.1,0-0.2,0c0,0,0,0,0,0c0,0,0,0,0,0c-1.9,0-3.7,0.4-5.3,1.2
							c-2.8,1.4-5,3.7-6.1,6.7c-0.5,1.4-0.8,2.8-0.8,4.4v5.8H485c-3.4,0-6.1,2.7-6.1,6.1v14.7h0.6c3.4,0,6.1-2.7,6.1-6.1v-14.5
							c2.1-0.1,5.1-0.6,6.1-2.6c0.3-0.6,0.6-2.3,0.7-4.5l0.1-0.1c1.4,0.9,3.2,1.4,5.2,1.4c3.3,0,6.1-1.5,7.4-3.7
							c0.7,1.9,2.6,3.4,4.9,3.9v-0.7C510.1,335.9,509.8,334.4,509.3,333z"/>
					</g>
					<g>
						<g>
							<path class="st14" d="M454.9,396.7l-8.2-10.7l-7.8,6l0,0c-0.5,0.3-0.8,0.9-0.8,1.5l0.2,12.3c0,0.3,0.1,0.7,0.4,0.9
								c0.9,0.7,2.1,0.8,3.1,0.1l4.2-3.2c0,0,0,0,0,0L454.9,396.7z"/>
							<path class="st6" d="M504.6,357.6l-6.1,5.7l-6.2-5.7h-9.8v0c-1.8,0.2-3.5,1.1-4.7,2.6l-26.1,34.2l10.7,8.2l20.1-26.3v34.5
								h27.9v-53.3H504.6z"/>
						</g>
						<rect x="464.3" y="404.8" class="st20" width="13.9" height="67.2"/>
						<rect x="448.9" y="404.8" class="st21" width="15.3" height="67.2"/>
						<g>
							<path class="st12" d="M441.8,411.6v0.2v5.4c0,1.4,1.1,2.6,2.6,2.6h8.9c1.4,0,2.6-1.1,2.6-2.6v-5.4h0.1v-47.3h-14.1V411.6z"/>
							<path class="st12" d="M476.7,332.9h-16.7c-0.1,3.8-0.3,6.8-0.8,7.7c-1.1,2-4.1,2.5-6.2,2.6v2.1c0,6.8,5.5,12.3,12.3,12.3
								c6.8,0,12.3-5.5,12.3-12.3v-8C477.5,335.7,477.2,334.2,476.7,332.9z"/>
						</g>
						<path class="st17" d="M448.9,357.5c-3.9,0-7,3.2-7,7c0,0,0,0,0,0v31.2h14v9.3h22.4v-47.5H448.9z"/>
						<rect x="455.8" y="400.1" class="st19" width="22.4" height="4.7"/>
						<rect x="462.6" y="400.1" class="st22" width="5.3" height="4.7"/>
						<rect x="441.8" y="392.1" class="st13" width="14.1" height="8"/>
						<path class="st19" d="M465.2,325c-1.9,0-3.7,0.4-5.3,1.2c-2.8,1.4-5,3.7-6.2,6.7c-0.5,1.4-0.8,2.8-0.8,4.4v5.9
							c2.1-0.1,5.1-0.5,6.2-2.6c0.5-0.9,0.7-3.9,0.8-7.7h16.7C474.9,328.3,470.5,325,465.2,325z"/>
						<polygon class="st23" points="471.9,357.5 465.2,357.5 465.2,357.5 458.5,357.5 459.9,362.8 465.2,357.5 470.5,362.8 						
							"/>
						<g>
							<path class="st7" d="M466.1,367.9c0,0.5-0.4,0.9-0.9,0.9s-0.9-0.4-0.9-0.9c0-0.5,0.4-0.9,0.9-0.9S466.1,367.4,466.1,367.9z"
								/>
							<path class="st7" d="M466.1,380.5c0,0.5-0.4,0.9-0.9,0.9s-0.9-0.4-0.9-0.9c0-0.5,0.4-0.9,0.9-0.9S466.1,380,466.1,380.5z"/>
							<circle class="st7" cx="465.2" cy="393" r="0.9"/>
						</g>
						<path class="st24" d="M484.7,466.4C484.7,466.4,484.6,466.4,484.7,466.4L484.7,466.4l-22.3-0.1v9.8h22.3v0c0,0,0,0,0,0
							c2.7,0,4.9-2.2,4.9-4.9S487.3,466.4,484.7,466.4z"/>
						<g>
							<path class="st25" d="M474.7,466.3l-2,2.6c-0.3,0.4-0.2,0.9,0.1,1.2c0.4,0.3,0.9,0.2,1.2-0.1l2.8-3.6H474.7z"/>
							<path class="st25" d="M478.3,466.3l-2,2.6c-0.3,0.4-0.2,0.9,0.1,1.2c0.4,0.3,0.9,0.2,1.2-0.1l2.8-3.6H478.3z"/>
							<path class="st25" d="M481.9,466.3l-2,2.6c-0.3,0.4-0.2,0.9,0.1,1.2c0.4,0.3,0.9,0.2,1.2-0.1l2.8-3.6H481.9z"/>
						</g>
						<path class="st26" d="M471.3,466.4C471.2,466.4,471.2,466.4,471.3,466.4L471.3,466.4l-22.3-0.1v9.8h22.3v0c0,0,0,0,0,0
							c2.7,0,4.9-2.2,4.9-4.9S473.9,466.4,471.3,466.4z"/>
						<g>
							<path class="st1" d="M460.8,466.3l-2,2.6c-0.3,0.4-0.2,0.9,0.1,1.2c0.4,0.3,0.9,0.2,1.2-0.1l2.8-3.6H460.8z"/>
							<path class="st1" d="M464.4,466.3l-2,2.6c-0.3,0.4-0.2,0.9,0.1,1.2c0.4,0.3,0.9,0.2,1.2-0.1l2.8-3.6H464.4z"/>
							<path class="st1" d="M468,466.3l-2,2.6c-0.3,0.4-0.2,0.9,0.1,1.2c0.4,0.3,0.9,0.2,1.2-0.1l2.8-3.6H468z"/>
						</g>
					</g>
					<polygon class="st1" points="491.2,357.6 497.7,374.4 504.6,357.6 498,357.6 					"/>
				</g>
			</g>
			<g>
				<polygon class="st27" points="680.9,262.6 341.6,262.6 355.8,276.8 666.7,276.8 				"/>
				<polygon class="st28" points="680.9,505.7 341.6,505.7 355.8,491.6 666.7,491.6 				"/>
				<polygon class="st27" points="341.6,262.6 341.6,505.7 355.8,491.6 355.8,276.8 				"/>
				<polygon class="st28" points="680.9,505.7 680.9,262.6 666.7,276.8 666.7,491.6 				"/>
			</g>
			<g class="st29">
				<g class="st30">
					<polygon class="st1" points="666.7,341.9 666.7,416.4 592.3,491.5 517.1,491.5 					"/>
				</g>
				<g class="st30">
					<polygon class="st1" points="666.7,276.8 666.7,295.4 470.7,491.6 452.3,491.6 					"/>
				</g>
			</g>
			<polygon class="st31" points="691.7,273.6 680.9,262.6 680.9,505.7 341.6,505.7 352.5,516.7 691.7,516.7 691.7,516.7 
				691.7,516.7 			"/>
		</g>
		<g>
			<g>
				<defs>
					<rect id="SVGID_3_" x="749.3" y="663.7" width="313.8" height="214.8"/>
				</defs>
				<clipPath id="SVGID_4_">
					<use xlink:href="#SVGID_3_"  style="overflow:visible;"/>
				</clipPath>
				<g class="st32">
					<rect x="619.5" y="546" class="st2" width="490.5" height="354"/>
					<g>
						<g>
							<defs>
								<rect id="SVGID_5_" x="68" y="744.3" width="1226.5" height="55"/>
							</defs>
							<clipPath id="SVGID_6_">
								<use xlink:href="#SVGID_5_"  style="overflow:visible;"/>
							</clipPath>
							<rect x="516.7" y="744.3" class="st33" width="702.9" height="55"/>
							<g class="st34">
								
									<rect x="841.1" y="769.6" transform="matrix(0.6979 -0.7162 0.7162 0.6979 -281.5157 873.5029)" class="st35" width="107.2" height="1.7"/>
								
									<rect x="972.1" y="769.6" transform="matrix(0.6979 -0.7162 0.7162 0.6979 -241.9483 967.3121)" class="st36" width="107.2" height="1.7"/>
								
									<rect x="1103.1" y="769.6" transform="matrix(0.6979 -0.7162 0.7162 0.6979 -202.3811 1061.1212)" class="st35" width="107.2" height="1.7"/>
								
									<rect x="579.1" y="769.6" transform="matrix(0.6979 -0.7162 0.7162 0.6979 -360.6503 685.8845)" class="st35" width="107.2" height="1.7"/>
								
									<rect x="710.1" y="769.6" transform="matrix(0.6979 -0.7162 0.7162 0.6979 -321.083 779.6936)" class="st35" width="107.2" height="1.7"/>
							</g>
							<rect x="68" y="792.3" class="st37" width="1226.5" height="7"/>
						</g>
						<rect x="521.1" y="799.3" class="st38" width="702.9" height="101.6"/>
					</g>
					<rect x="162.7" y="275.3" class="st39" width="1110.6" height="624.7"/>
					<g>
						<path class="st40" d="M919.4,765.7l-28.7-46h-99.5L762.4,766L710,777.6v52.2h42.6c0-0.3,0-0.6,0-0.9
							c0-15.7,12.7-28.4,28.4-28.4c15.7,0,28.4,12.7,28.4,28.4c0,0.3,0,0.6,0,0.9h79.9c0-0.3,0-0.6,0-0.9
							c0-15.7,12.7-28.4,28.4-28.4c15.7,0,28.4,12.7,28.4,28.4c0,0.3,0,0.6,0,0.9H977v-52.1L919.4,765.7z"/>
						<polygon class="st41" points="1014.9,777.6 959.2,766 930.3,719.7 890.7,719.7 919.4,765.7 977,777.7 977,829.8 1014.9,829.8 
													"/>
						<g>
							
								<ellipse transform="matrix(0.974 -0.2267 0.2267 0.974 -164.0089 229.5529)" class="st36" cx="917.5" cy="828.9" rx="22.1" ry="22.1"/>
							<path class="st1" d="M908.1,828.9c0,5.2,4.2,9.5,9.5,9.5c5.2,0,9.5-4.2,9.5-9.5c0-5.2-4.2-9.5-9.5-9.5
								C912.3,819.4,908.1,823.7,908.1,828.9z"/>
							<circle class="st42" cx="917.5" cy="828.9" r="4.5"/>
						</g>
						<g>
							
								<ellipse transform="matrix(0.974 -0.2267 0.2267 0.974 -167.5642 198.5914)" class="st36" cx="780.9" cy="828.9" rx="22.1" ry="22.1"/>
							<path class="st1" d="M771.5,828.9c0,5.2,4.2,9.5,9.5,9.5c5.2,0,9.5-4.2,9.5-9.5c0-5.2-4.2-9.5-9.5-9.5
								C775.7,819.4,771.5,823.7,771.5,828.9z"/>
							<circle class="st42" cx="780.9" cy="828.9" r="4.5"/>
						</g>
						<g>
							<g>
								<polygon class="st43" points="771.8,764.7 840.3,727.2 840.3,726.2 795.7,726.2 								"/>
								<polygon class="st43" points="846.6,764.7 886.3,726.2 846.6,726.2 								"/>
								<polygon class="st43" points="900.5,726.2 924.9,764.7 928.6,726.2 								"/>
							</g>
							<g>
								<polygon class="st1" points="840.3,764.7 840.3,727.2 771.8,764.7 								"/>
								<polygon class="st1" points="846.6,764.7 910.7,764.7 886.3,726.2 								"/>
								<polygon class="st1" points="928.6,726.2 924.9,764.7 953.4,764.7 								"/>
							</g>
						</g>
						<rect x="771.8" y="776.1" class="st1" width="13.8" height="2.5"/>
						<rect x="846.6" y="776.1" class="st1" width="13.8" height="2.5"/>
						<g>
							<rect x="984.7" y="803.1" class="st1" width="23.6" height="2"/>
							<rect x="984.7" y="808" class="st1" width="23.6" height="2"/>
							<rect x="984.7" y="812.9" class="st1" width="23.6" height="2"/>
							<rect x="984.7" y="817.7" class="st1" width="23.6" height="2"/>
							<g>
								<polygon class="st43" points="993.3,783.2 984.7,783.2 984.7,792.5 993.3,783.4 								"/>
								<polygon class="st1" points="984.7,792.5 984.7,792.6 993.3,792.6 993.3,783.4 								"/>
							</g>
							<g>
								<polygon class="st43" points="1008,783.2 999.5,783.2 999.5,792.5 1008,783.4 								"/>
								<polygon class="st1" points="999.5,792.5 999.5,792.6 1008,792.6 1008,783.4 								"/>
							</g>
						</g>
					</g>
					<g>
						<path class="st44" d="M900.5,742.1l-15.2-23.7c-0.1-0.2-0.3-0.4-0.4-0.6c-1.6-2.2-4.4-3-6.9-2.2l0,0l-0.1,0c0,0,0,0,0,0
							l-27.3,8.8l3.8,11.9l23.5-7.5l15.6,18.5c0,0,0,0.1,0,0.1c1.4,1.9,4.2,2.4,6.1,0.9C901.6,746.8,902,744.1,900.5,742.1z"/>
						<g>
							<path class="st27" d="M822.3,845.1L822.3,845.1l-3.2-21l-10.2,1.6l3.3,21l0,0c0,0,0,0,0,0c0.4,2.8,3,4.7,5.8,4.2
								C820.8,850.5,822.7,847.9,822.3,845.1C822.3,845.1,822.3,845.1,822.3,845.1z"/>
							<g>
								<path class="st25" d="M820.6,834l-2.8-1.6c-0.4-0.2-0.9-0.1-1.1,0.3c-0.2,0.4-0.1,0.9,0.3,1.1l3.9,2.2L820.6,834z"/>
								<path class="st25" d="M821.2,837.5l-2.8-1.6c-0.4-0.2-0.9-0.1-1.1,0.3c-0.2,0.4-0.1,0.9,0.3,1.1l3.9,2.2L821.2,837.5z"/>
								<path class="st25" d="M821.7,841l-2.8-1.6c-0.4-0.2-0.9-0.1-1.1,0.3c-0.2,0.4-0.1,0.9,0.3,1.1l3.9,2.2L821.7,841z"/>
							</g>
						</g>
						<path class="st44" d="M829,776.5C829,776.4,829,776.4,829,776.5l-12.5-21.4l13-21.5l-10.7-6.5l-14.9,24.6l0,0
							c-1.2,2-1.2,4.6,0.2,6.7c0.1,0.2,0.3,0.4,0.5,0.6l17.2,22.2c1.3,2,4.1,2.5,6.1,1.2C829.8,781.2,830.4,778.5,829,776.5z"/>
						<rect x="824.7" y="780.4" class="st45" width="16.1" height="66.3"/>
						<path class="st46" d="M861,814.6L861,814.6l-5.5-37.2l-16,2.3l4.6,31.1l-28.9,12.7l6.5,14.8l34.6-15.2c0,0,0,0,0,0
							C859.7,821.7,861.5,818.2,861,814.6z"/>
						<path class="st17" d="M872.5,732.6l-4.2-14.1l-11.3,3.4v0c-3.3,1-6.8,1.6-10.3,1.6h-22v0c-2.6,0-5.1,1.3-6.4,3.7l-9.2,15.8
							l12.8,7.4l2.9-4.9v41.3h32.2v-49.4v0L872.5,732.6z"/>
						<ellipse class="st47" cx="843.2" cy="740.6" rx="7.8" ry="4.7"/>
						<g>
							<path class="st28" d="M840.8,851h-16.2v-1.9c0-3.8,3.6-6.9,8.1-6.9h0c4.5,0,8.1,3.1,8.1,6.9V851z"/>
						</g>
						<path class="st44" d="M835.8,695.9c-0.1,4.2-0.3,7.6-0.9,8.6c-1.2,2.3-4.6,2.8-7,2.9v2.3c0,7.6,6.2,13.8,13.8,13.8
							c7.6,0,13.8-6.2,13.8-13.8v-8.9c0-1.7-0.3-3.4-0.9-4.9H835.8z"/>
						<path class="st19" d="M841.7,687c-2.1,0-4.2,0.5-6,1.4c-3.2,1.5-5.6,4.2-6.9,7.5c-0.6,1.5-0.9,3.2-0.9,4.9v6.6
							c2.4-0.1,5.7-0.6,7-2.9c0.6-1,0.8-4.4,0.9-8.6h18.8C852.6,690.7,847.6,687,841.7,687z"/>
						<path class="st1" d="M846,715.8c-3.4,0-6.2-2.8-6.2-6.2h12.3C852.2,713.1,849.4,715.8,846,715.8z"/>
					</g>
				</g>
			</g>
			<g>
				<polygon class="st27" points="1076.1,649.7 736.8,649.7 751,663.9 1061.9,663.9 				"/>
				<polygon class="st28" points="1076.1,892.8 736.8,892.8 751,878.6 1061.9,878.6 				"/>
				<g class="st29">
					<g class="st30">
						<polygon class="st1" points="1061.9,749.4 1061.9,795.9 979.1,878.6 932.6,878.6 						"/>
					</g>
				</g>
				<polygon class="st27" points="736.8,649.7 736.8,892.8 751,878.6 751,663.9 				"/>
				<polygon class="st28" points="1076.1,892.8 1076.1,649.7 1061.9,663.9 1061.9,878.6 				"/>
			</g>
			<g class="st29">
				<g class="st30">
					<polygon class="st1" points="819.5,663.9 752.4,663.9 751,665.2 751,732.3 					"/>
				</g>
			</g>
			<g class="st29">
				<g class="st30">
					<polygon class="st1" points="853.2,663.9 833.8,663.9 751,746.6 751,766 					"/>
				</g>
			</g>
			<polygon class="st31" points="1086.9,660.6 1076.1,649.7 1076.1,892.8 736.8,892.8 747.7,903.8 1086.9,903.8 1086.9,903.8 
				1086.9,903.8 			"/>
		</g>
		<g>
			<path class="st31" d="M889.2,311.9c-63.6,0-115.2,67-115.2,149.6s51.6,149.6,115.2,149.6c63.6,0,115.2-67,115.2-149.6
				S952.8,311.9,889.2,311.9z"/>
			<path class="st48" d="M887.6,586.6c-52.1,0-94.4-56.9-94.4-127.1s42.3-127.1,94.4-127.1c52.1,0,94.4,56.9,94.4,127.1
				S939.8,586.6,887.6,586.6z"/>
			<g>
				<defs>
					<ellipse id="SVGID_7_" cx="879.3" cy="451.2" rx="94.4" ry="127.1"/>
				</defs>
				<clipPath id="SVGID_8_">
					<use xlink:href="#SVGID_7_"  style="overflow:visible;"/>
				</clipPath>
				<g class="st49">
					<rect x="773.5" y="311.8" class="st50" width="211.7" height="277.6"/>
					<g>
						<path class="st51" d="M880.9,593h-3.1c-39.1,0-70.7-31.7-70.7-70.7v-98.7c0-39.1,31.7-70.7,70.7-70.7h3.1
							c39.1,0,70.7,31.7,70.7,70.7v98.7C951.6,561.4,919.9,593,880.9,593z"/>
						<g class="st29">
							<path class="st52" d="M827.1,570.7c13.2,13.8,31.7,22.4,52.2,22.4c39.9,0,72.3-32.4,72.3-72.3v-74.6L827.1,570.7z"/>
						</g>
						<g>
							<path class="st53" d="M807.1,520.8c0,39.9,32.4,72.3,72.3,72.3c20.5,0,39-8.6,52.2-22.4L807.1,446.2V520.8z"/>
						</g>
						<circle class="st14" cx="879.7" cy="422.9" r="37.5"/>
						<g>
							<path class="st19" d="M885.7,391.1h-12c-3,0-5.5-2.5-5.5-5.5v-0.6c0-3,2.5-5.5,5.5-5.5h12c3,0,5.5,2.5,5.5,5.5v0.6
								C891.2,388.6,888.7,391.1,885.7,391.1z"/>
							<path class="st19" d="M886.4,371.8c0.3,0.7,0.5,1.4,0.5,2.3c0,3-2.4,5.5-5.5,5.5c-1.9,0-5.6,0.3-5.6,1.9
								c0,5.3,4.3,9.7,9.7,9.7c5.3,0,9.7-4.3,9.7-9.7C895.1,376.4,891.3,372.3,886.4,371.8z"/>
						</g>
						<path class="st1" d="M883.4,429.4l-1,0.6c-0.9,0.5-1.8,0.8-2.8,0.8h0c-1,0-2-0.3-2.8-0.8l-1-0.6c-0.9-0.5-1.8-0.8-2.8-0.8l0,0
							c-3.4,0-6.2,2.8-6.2,6.2v2.5c0,3.4,2.8,6.2,6.2,6.2h13.3c3.4,0,6.2-2.8,6.2-6.2v-2.5c0-3.4-2.8-6.2-6.2-6.2l0,0
							C885.3,428.6,884.3,428.9,883.4,429.4z"/>
						<g>
							<path class="st54" d="M853.5,416.2c0,0,2.2,4.7,7.4,4.7s7.4-4.7,7.4-4.7"/>
							<path class="st54" d="M891.1,416.2c0,0,2.3,4.7,7.4,4.7s7.4-4.7,7.4-4.7"/>
						</g>
						<circle class="st55" cx="879.7" cy="443.5" r="6.3"/>
						<circle class="st50" cx="879.7" cy="437.1" r="3.7"/>
					</g>
				</g>
				<g class="st56">
					<g class="st30">
						<polygon class="st1" points="912.4,301.5 834.2,301.5 755.4,379.5 755.4,458.4 						"/>
					</g>
					<g class="st30">
						<polygon class="st1" points="939.6,302.5 923.6,302.5 755.1,470.9 755.1,486.7 						"/>
					</g>
				</g>
			</g>
			<g>
				<path class="st57" d="M879.3,303.6c-62.7,0-113.6,66.1-113.6,147.6s50.9,147.6,113.6,147.6c62.7,0,113.6-66.1,113.6-147.6
					S942,303.6,879.3,303.6z M879.3,578.2c-52.1,0-94.4-56.9-94.4-127.1s42.3-127.1,94.4-127.1c52.1,0,94.4,56.9,94.4,127.1
					S931.5,578.2,879.3,578.2z"/>
				<path class="st58" d="M879.3,598.7c60.3,0,113.6-62.8,113.6-147.6s-53.3-147.6-113.6-147.6v20.5c52.1,0,94.4,56.9,94.4,127.1
					s-42.3,127.1-94.4,127.1V598.7z"/>
			</g>
		</g>
		<g>
			<path class="st31" d="M179.1,458.5c-68.7,0-124.5,72.4-124.5,161.7s55.7,161.7,124.5,161.7c68.7,0,124.5-72.4,124.5-161.7
				S247.8,458.5,179.1,458.5z"/>
			<path class="st48" d="M177.4,755.3c-56.3,0-102-61.5-102-137.3s45.7-137.3,102-137.3c56.3,0,102,61.5,102,137.3
				S233.7,755.3,177.4,755.3z"/>
			<g>
				<defs>
					<ellipse id="SVGID_9_" cx="168.4" cy="609" rx="102" ry="137.3"/>
				</defs>
				<clipPath id="SVGID_10_">
					<use xlink:href="#SVGID_9_"  style="overflow:visible;"/>
				</clipPath>
				<g class="st59">
					<rect x="54.1" y="458.4" class="st4" width="228.8" height="300"/>
				</g>
				<g class="st60">
					<g class="st30">
						<polygon class="st1" points="204.2,447.2 119.7,447.2 34.5,531.6 34.5,616.9 						"/>
					</g>
					<g class="st30">
						<polygon class="st1" points="233.5,448.4 216.2,448.4 34.2,630.3 34.2,647.4 						"/>
					</g>
				</g>
			</g>
			<g>
				<path class="st57" d="M168.4,449.5c-67.8,0-122.7,71.4-122.7,159.5c0,88.1,55,159.5,122.7,159.5c67.8,0,122.7-71.4,122.7-159.5
					C291.1,520.9,236.2,449.5,168.4,449.5z M168.4,746.4c-56.3,0-102-61.5-102-137.3s45.7-137.3,102-137.3
					c56.3,0,102,61.5,102,137.3S224.7,746.4,168.4,746.4z"/>
				<path class="st61" d="M168.4,768.5c65.2,0,122.7-67.9,122.7-159.5s-57.6-159.5-122.7-159.5v22.1c56.3,0,102,61.5,102,137.3
					s-45.7,137.3-102,137.3V768.5z"/>
			</g>
		</g>
		<g>
			<g>
				<defs>
					<rect id="SVGID_11_" x="362" y="575.1" width="299" height="206.6"/>
				</defs>
				<clipPath id="SVGID_12_">
					<use xlink:href="#SVGID_11_"  style="overflow:visible;"/>
				</clipPath>
				<g class="st62">
					<rect x="268" y="763.4" class="st22" width="379.9" height="79.5"/>
					<rect x="268" y="683.6" class="st9" width="379.9" height="79.5"/>
					<rect x="268" y="419.9" class="st4" width="379.9" height="263.4"/>
					<g>
						<path class="st8" d="M362.8,618c37.8,0,68.5-30.7,68.5-68.5H294.2C294.2,587.3,324.9,618,362.8,618z"/>
						<path class="st9" d="M362.8,480.9c-37.8,0-68.5,30.7-68.5,68.5h137.1C431.3,511.6,400.6,480.9,362.8,480.9z"/>
						<path class="st8" d="M362.8,786.8c46.8,0,84.8-38,84.8-84.8H278C278,748.8,315.9,786.8,362.8,786.8z"/>
						<path class="st9" d="M362.8,617.2c-46.8,0-84.8,38-84.8,84.8h169.6C447.6,655.2,409.6,617.2,362.8,617.2z"/>
					</g>
					<g>
						<g>
							<rect x="808.7" y="573.7" class="st63" width="14.9" height="8.8"/>
							<rect x="588" y="573.7" class="st63" width="29.7" height="8.8"/>
							<rect x="619.5" y="573.7" class="st63" width="29.7" height="8.8"/>
							<rect x="651" y="573.7" class="st63" width="29.7" height="8.8"/>
							<rect x="682.5" y="573.7" class="st63" width="29.7" height="8.8"/>
							<rect x="714.1" y="573.7" class="st63" width="29.7" height="8.8"/>
							<rect x="745.6" y="573.7" class="st63" width="29.7" height="8.8"/>
							<rect x="777.1" y="573.7" class="st63" width="29.7" height="8.8"/>
							<rect x="588" y="563.1" class="st63" width="14.9" height="8.8"/>
							<rect x="793.8" y="563.1" class="st63" width="29.7" height="8.8"/>
							<rect x="762.3" y="563.1" class="st63" width="29.7" height="8.8"/>
							<rect x="730.7" y="563.1" class="st63" width="29.7" height="8.8"/>
							<rect x="699.2" y="563.1" class="st63" width="29.7" height="8.8"/>
							<rect x="667.7" y="563.1" class="st63" width="29.7" height="8.8"/>
							<rect x="636.1" y="563.1" class="st63" width="29.7" height="8.8"/>
							<rect x="604.6" y="563.1" class="st63" width="29.7" height="8.8"/>
							<rect x="808.7" y="552.6" class="st63" width="14.9" height="8.8"/>
							<rect x="588" y="552.6" class="st63" width="29.7" height="8.8"/>
							<rect x="619.5" y="552.6" class="st63" width="29.7" height="8.8"/>
							<rect x="651" y="552.6" class="st63" width="29.7" height="8.8"/>
							<rect x="682.5" y="552.6" class="st63" width="29.7" height="8.8"/>
							<rect x="714.1" y="552.6" class="st63" width="29.7" height="8.8"/>
							<rect x="745.6" y="552.6" class="st63" width="29.7" height="8.8"/>
							<rect x="777.1" y="552.6" class="st63" width="29.7" height="8.8"/>
							<rect x="588" y="542" class="st63" width="14.9" height="8.8"/>
							<rect x="793.8" y="542" class="st63" width="29.7" height="8.8"/>
							<rect x="762.3" y="542" class="st63" width="29.7" height="8.8"/>
							<rect x="730.7" y="542" class="st63" width="29.7" height="8.8"/>
							<rect x="699.2" y="542" class="st63" width="29.7" height="8.8"/>
							<rect x="667.7" y="542" class="st63" width="29.7" height="8.8"/>
							<rect x="636.1" y="542" class="st63" width="29.7" height="8.8"/>
							<rect x="604.6" y="542" class="st63" width="29.7" height="8.8"/>
							<rect x="808.7" y="615.9" class="st63" width="14.9" height="8.8"/>
							<rect x="588" y="615.9" class="st63" width="29.7" height="8.8"/>
							<rect x="619.5" y="615.9" class="st63" width="29.7" height="8.8"/>
							<rect x="651" y="615.9" class="st63" width="29.7" height="8.8"/>
							<rect x="682.5" y="615.9" class="st63" width="29.7" height="8.8"/>
							<rect x="714.1" y="615.9" class="st63" width="29.7" height="8.8"/>
							<rect x="745.6" y="615.9" class="st63" width="29.7" height="8.8"/>
							<rect x="777.1" y="615.9" class="st63" width="29.7" height="8.8"/>
							<rect x="588" y="605.3" class="st63" width="14.9" height="8.8"/>
							<rect x="793.8" y="605.3" class="st63" width="29.7" height="8.8"/>
							<rect x="762.3" y="605.3" class="st63" width="29.7" height="8.8"/>
							<rect x="730.7" y="605.3" class="st63" width="29.7" height="8.8"/>
							<rect x="699.2" y="605.3" class="st63" width="29.7" height="8.8"/>
							<rect x="667.7" y="605.3" class="st63" width="29.7" height="8.8"/>
							<rect x="636.1" y="605.3" class="st63" width="29.7" height="8.8"/>
							<rect x="604.6" y="605.3" class="st63" width="29.7" height="8.8"/>
							<rect x="808.7" y="594.8" class="st63" width="14.9" height="8.8"/>
							<rect x="588" y="594.8" class="st63" width="29.7" height="8.8"/>
							<rect x="619.5" y="594.8" class="st63" width="29.7" height="8.8"/>
							<rect x="651" y="594.8" class="st63" width="29.7" height="8.8"/>
							<rect x="682.5" y="594.8" class="st63" width="29.7" height="8.8"/>
							<rect x="714.1" y="594.8" class="st63" width="29.7" height="8.8"/>
							<rect x="745.6" y="594.8" class="st63" width="29.7" height="8.8"/>
							<rect x="777.1" y="594.8" class="st63" width="29.7" height="8.8"/>
							<rect x="588" y="584.2" class="st63" width="14.9" height="8.8"/>
							<rect x="793.8" y="584.2" class="st63" width="29.7" height="8.8"/>
							<rect x="762.3" y="584.2" class="st63" width="29.7" height="8.8"/>
							<rect x="730.7" y="584.2" class="st63" width="29.7" height="8.8"/>
							<rect x="699.2" y="584.2" class="st63" width="29.7" height="8.8"/>
							<rect x="667.7" y="584.2" class="st63" width="29.7" height="8.8"/>
							<rect x="636.1" y="584.2" class="st63" width="29.7" height="8.8"/>
							<rect x="604.6" y="584.2" class="st63" width="29.7" height="8.8"/>
							<rect x="808.7" y="658.1" class="st63" width="14.9" height="8.8"/>
							<rect x="588" y="658.1" class="st63" width="29.7" height="8.8"/>
							<rect x="619.5" y="658.1" class="st63" width="29.7" height="8.8"/>
							<rect x="651" y="658.1" class="st63" width="29.7" height="8.8"/>
							<rect x="682.5" y="658.1" class="st63" width="29.7" height="8.8"/>
							<rect x="714.1" y="658.1" class="st63" width="29.7" height="8.8"/>
							<rect x="745.6" y="658.1" class="st63" width="29.7" height="8.8"/>
							<rect x="777.1" y="658.1" class="st63" width="29.7" height="8.8"/>
							<rect x="588" y="647.5" class="st63" width="14.9" height="8.8"/>
							<rect x="793.8" y="647.5" class="st63" width="29.7" height="8.8"/>
							<rect x="762.3" y="647.5" class="st63" width="29.7" height="8.8"/>
							<rect x="730.7" y="647.5" class="st63" width="29.7" height="8.8"/>
							<rect x="699.2" y="647.5" class="st63" width="29.7" height="8.8"/>
							<rect x="667.7" y="647.5" class="st63" width="29.7" height="8.8"/>
							<rect x="636.1" y="647.5" class="st63" width="29.7" height="8.8"/>
							<rect x="604.6" y="647.5" class="st63" width="29.7" height="8.8"/>
							<rect x="808.7" y="637" class="st63" width="14.9" height="8.8"/>
							<rect x="588" y="637" class="st63" width="29.7" height="8.8"/>
							<rect x="619.5" y="637" class="st63" width="29.7" height="8.8"/>
							<rect x="651" y="637" class="st63" width="29.7" height="8.8"/>
							<rect x="682.5" y="637" class="st63" width="29.7" height="8.8"/>
							<rect x="714.1" y="637" class="st63" width="29.7" height="8.8"/>
							<rect x="745.6" y="637" class="st63" width="29.7" height="8.8"/>
							<rect x="777.1" y="637" class="st63" width="29.7" height="8.8"/>
							<rect x="588" y="626.4" class="st63" width="14.9" height="8.8"/>
							<rect x="793.8" y="626.4" class="st63" width="29.7" height="8.8"/>
							<rect x="762.3" y="626.4" class="st63" width="29.7" height="8.8"/>
							<rect x="730.7" y="626.4" class="st63" width="29.7" height="8.8"/>
							<rect x="699.2" y="626.4" class="st63" width="29.7" height="8.8"/>
							<rect x="667.7" y="626.4" class="st63" width="29.7" height="8.8"/>
							<rect x="636.1" y="626.4" class="st63" width="29.7" height="8.8"/>
							<rect x="604.6" y="626.4" class="st63" width="29.7" height="8.8"/>
							<rect x="808.7" y="700.3" class="st63" width="14.9" height="8.8"/>
							<rect x="588" y="700.3" class="st63" width="29.7" height="8.8"/>
							<rect x="619.5" y="700.3" class="st63" width="29.7" height="8.8"/>
							<rect x="651" y="700.3" class="st63" width="29.7" height="8.8"/>
							<rect x="682.5" y="700.3" class="st63" width="29.7" height="8.8"/>
							<rect x="714.1" y="700.3" class="st63" width="29.7" height="8.8"/>
							<rect x="745.6" y="700.3" class="st63" width="29.7" height="8.8"/>
							<rect x="777.1" y="700.3" class="st63" width="29.7" height="8.8"/>
							<rect x="588" y="689.8" class="st63" width="14.9" height="8.8"/>
							<rect x="793.8" y="689.8" class="st63" width="29.7" height="8.8"/>
							<rect x="762.3" y="689.8" class="st63" width="29.7" height="8.8"/>
							<rect x="730.7" y="689.8" class="st63" width="29.7" height="8.8"/>
							<rect x="699.2" y="689.8" class="st63" width="29.7" height="8.8"/>
							<rect x="667.7" y="689.8" class="st63" width="29.7" height="8.8"/>
							<rect x="636.1" y="689.8" class="st63" width="29.7" height="8.8"/>
							<rect x="604.6" y="689.8" class="st63" width="29.7" height="8.8"/>
							<rect x="808.7" y="679.2" class="st63" width="14.9" height="8.8"/>
							<rect x="588" y="679.2" class="st63" width="29.7" height="8.8"/>
							<rect x="619.5" y="679.2" class="st63" width="29.7" height="8.8"/>
							<rect x="651" y="679.2" class="st63" width="29.7" height="8.8"/>
							<rect x="682.5" y="679.2" class="st63" width="29.7" height="8.8"/>
							<rect x="714.1" y="679.2" class="st63" width="29.7" height="8.8"/>
							<rect x="745.6" y="679.2" class="st63" width="29.7" height="8.8"/>
							<rect x="777.1" y="679.2" class="st63" width="29.7" height="8.8"/>
							<rect x="588" y="668.7" class="st63" width="14.9" height="8.8"/>
							<rect x="793.8" y="668.7" class="st63" width="29.7" height="8.8"/>
							<rect x="762.3" y="668.7" class="st63" width="29.7" height="8.8"/>
							<rect x="730.7" y="668.7" class="st63" width="29.7" height="8.8"/>
							<rect x="699.2" y="668.7" class="st63" width="29.7" height="8.8"/>
							<rect x="667.7" y="668.7" class="st63" width="29.7" height="8.8"/>
							<rect x="636.1" y="668.7" class="st63" width="29.7" height="8.8"/>
							<rect x="604.6" y="668.7" class="st63" width="29.7" height="8.8"/>
							<rect x="808.7" y="742.5" class="st63" width="14.9" height="8.8"/>
							<rect x="588" y="742.5" class="st63" width="29.7" height="8.8"/>
							<rect x="619.5" y="742.5" class="st63" width="29.7" height="8.8"/>
							<rect x="651" y="742.5" class="st63" width="29.7" height="8.8"/>
							<rect x="682.5" y="742.5" class="st63" width="29.7" height="8.8"/>
							<rect x="714.1" y="742.5" class="st63" width="29.7" height="8.8"/>
							<rect x="745.6" y="742.5" class="st63" width="29.7" height="8.8"/>
							<rect x="777.1" y="742.5" class="st63" width="29.7" height="8.8"/>
							<rect x="588" y="732" class="st63" width="14.9" height="8.8"/>
							<rect x="793.8" y="732" class="st63" width="29.7" height="8.8"/>
							<rect x="762.3" y="732" class="st63" width="29.7" height="8.8"/>
							<rect x="730.7" y="732" class="st63" width="29.7" height="8.8"/>
							<rect x="699.2" y="732" class="st63" width="29.7" height="8.8"/>
							<rect x="667.7" y="732" class="st63" width="29.7" height="8.8"/>
							<rect x="636.1" y="732" class="st63" width="29.7" height="8.8"/>
							<rect x="604.6" y="732" class="st63" width="29.7" height="8.8"/>
							<rect x="808.7" y="721.4" class="st63" width="14.9" height="8.8"/>
							<rect x="588" y="721.4" class="st63" width="29.7" height="8.8"/>
							<rect x="619.5" y="721.4" class="st63" width="29.7" height="8.8"/>
							<rect x="651" y="721.4" class="st63" width="29.7" height="8.8"/>
							<rect x="682.5" y="721.4" class="st63" width="29.7" height="8.8"/>
							<rect x="714.1" y="721.4" class="st63" width="29.7" height="8.8"/>
							<rect x="745.6" y="721.4" class="st63" width="29.7" height="8.8"/>
							<rect x="777.1" y="721.4" class="st63" width="29.7" height="8.8"/>
							<rect x="588" y="710.9" class="st63" width="14.9" height="8.8"/>
							<rect x="793.8" y="710.9" class="st63" width="29.7" height="8.8"/>
							<rect x="762.3" y="710.9" class="st63" width="29.7" height="8.8"/>
							<rect x="730.7" y="710.9" class="st63" width="29.7" height="8.8"/>
							<rect x="699.2" y="710.9" class="st63" width="29.7" height="8.8"/>
							<rect x="667.7" y="710.9" class="st63" width="29.7" height="8.8"/>
							<rect x="636.1" y="710.9" class="st63" width="29.7" height="8.8"/>
							<rect x="604.6" y="710.9" class="st63" width="29.7" height="8.8"/>
							<rect x="808.7" y="784.7" class="st63" width="14.9" height="8.8"/>
							<rect x="588" y="784.7" class="st63" width="29.7" height="8.8"/>
							<rect x="619.5" y="784.7" class="st63" width="29.7" height="8.8"/>
							<rect x="651" y="784.7" class="st63" width="29.7" height="8.8"/>
							<rect x="682.5" y="784.7" class="st63" width="29.7" height="8.8"/>
							<rect x="714.1" y="784.7" class="st63" width="29.7" height="8.8"/>
							<rect x="745.6" y="784.7" class="st63" width="29.7" height="8.8"/>
							<rect x="777.1" y="784.7" class="st63" width="29.7" height="8.8"/>
							<rect x="588" y="774.2" class="st63" width="14.9" height="8.8"/>
							<rect x="793.8" y="774.2" class="st63" width="29.7" height="8.8"/>
							<rect x="762.3" y="774.2" class="st63" width="29.7" height="8.8"/>
							<rect x="730.7" y="774.2" class="st63" width="29.7" height="8.8"/>
							<rect x="699.2" y="774.2" class="st63" width="29.7" height="8.8"/>
							<rect x="667.7" y="774.2" class="st63" width="29.7" height="8.8"/>
							<rect x="636.1" y="774.2" class="st63" width="29.7" height="8.8"/>
							<rect x="604.6" y="774.2" class="st63" width="29.7" height="8.8"/>
							<rect x="808.7" y="763.6" class="st63" width="14.9" height="8.8"/>
							<rect x="588" y="763.6" class="st63" width="29.7" height="8.8"/>
							<rect x="619.5" y="763.6" class="st63" width="29.7" height="8.8"/>
							<rect x="651" y="763.6" class="st63" width="29.7" height="8.8"/>
							<rect x="682.5" y="763.6" class="st63" width="29.7" height="8.8"/>
							<rect x="714.1" y="763.6" class="st63" width="29.7" height="8.8"/>
							<rect x="745.6" y="763.6" class="st63" width="29.7" height="8.8"/>
							<rect x="777.1" y="763.6" class="st63" width="29.7" height="8.8"/>
							<rect x="588" y="753.1" class="st63" width="14.9" height="8.8"/>
							<rect x="793.8" y="753.1" class="st63" width="29.7" height="8.8"/>
							<rect x="762.3" y="753.1" class="st63" width="29.7" height="8.8"/>
							<rect x="730.7" y="753.1" class="st63" width="29.7" height="8.8"/>
							<rect x="699.2" y="753.1" class="st63" width="29.7" height="8.8"/>
							<rect x="667.7" y="753.1" class="st63" width="29.7" height="8.8"/>
							<rect x="636.1" y="753.1" class="st63" width="29.7" height="8.8"/>
							<rect x="604.6" y="753.1" class="st63" width="29.7" height="8.8"/>
							<rect x="808.7" y="531.5" class="st63" width="14.9" height="8.8"/>
							<rect x="588" y="531.5" class="st63" width="29.7" height="8.8"/>
							<rect x="619.5" y="531.5" class="st63" width="29.7" height="8.8"/>
							<rect x="651" y="531.5" class="st63" width="29.7" height="8.8"/>
							<rect x="682.5" y="531.5" class="st63" width="29.7" height="8.8"/>
							<rect x="714.1" y="531.5" class="st63" width="29.7" height="8.8"/>
							<rect x="745.6" y="531.5" class="st63" width="29.7" height="8.8"/>
							<rect x="777.1" y="531.5" class="st63" width="29.7" height="8.8"/>
							<rect x="588" y="520.9" class="st63" width="14.9" height="8.8"/>
							<rect x="793.8" y="520.9" class="st63" width="29.7" height="8.8"/>
							<rect x="762.3" y="520.9" class="st63" width="29.7" height="8.8"/>
							<rect x="730.7" y="520.9" class="st63" width="29.7" height="8.8"/>
							<rect x="699.2" y="520.9" class="st63" width="29.7" height="8.8"/>
							<rect x="667.7" y="520.9" class="st63" width="29.7" height="8.8"/>
							<rect x="636.1" y="520.9" class="st63" width="29.7" height="8.8"/>
							<rect x="604.6" y="520.9" class="st63" width="29.7" height="8.8"/>
						</g>
						<path class="st44" d="M823.5,531.5v-1.8h-29.7v-8.8H792v8.8h-29.7v-8.8h-1.8v8.8h-29.7v-8.8h-1.8v8.8h-29.7v-8.8h-1.8v8.8
							h-29.7v-8.8h-1.8v8.8h-29.7v-8.8h-1.8v8.8h-29.7v-8.8h-1.8v8.8H588v1.8h29.7v8.8H588v1.8h14.9v8.8H588v1.8h29.7v8.8H588v1.8
							h14.9v8.8H588v1.8h29.7v8.8H588v1.8h14.9v8.8H588v1.8h29.7v8.8H588v1.8h14.9v8.8H588v1.8h29.7v8.8H588v1.8h14.9v8.8H588v1.8
							h29.7v8.8H588v1.8h14.9v8.8H588v1.8h29.7v8.8H588v1.8h14.9v8.8H588v1.8h29.7v8.8H588v1.8h14.9v8.8H588v1.8h29.7v8.8H588v1.8
							h14.9v8.8H588v1.8h29.7v8.8H588v1.8h14.9v8.8H588v1.8h29.7v8.8H588v1.8h14.9v8.8H588v1.8h29.7v8.8H588v1.8h14.9v8.8H588v1.8
							h29.7v8.8h1.8v-8.8h29.7v8.8h1.8v-8.8h29.7v8.8h1.8v-8.8h29.7v8.8h1.8v-8.8h29.7v8.8h1.8v-8.8h29.7v8.8h1.8v-8.8h29.7v8.8h1.8
							v-8.8h14.9v-1.8h-29.7v-8.8h29.7v-1.8h-14.9v-8.8h14.9v-1.8h-29.7v-8.8h29.7v-1.8h-14.9v-8.8h14.9v-1.8h-29.7V732h29.7v-1.8
							h-14.9v-8.8h14.9v-1.8h-29.7v-8.8h29.7v-1.8h-14.9v-8.8h14.9v-1.8h-29.7v-8.8h29.7V688h-14.9v-8.8h14.9v-1.8h-29.7v-8.8h29.7
							v-1.8h-14.9v-8.8h14.9v-1.8h-29.7v-8.8h29.7v-1.8h-14.9V637h14.9v-1.8h-29.7v-8.8h29.7v-1.8h-14.9v-8.8h14.9v-1.8h-29.7v-8.8
							h29.7v-1.8h-14.9v-8.8h14.9V593h-29.7v-8.8h29.7v-1.8h-14.9v-8.8h14.9v-1.8h-29.7v-8.8h29.7v-1.8h-14.9v-8.8h14.9v-1.8h-29.7
							V542h29.7v-1.8h-14.9v-8.8H823.5z M775.3,531.5v8.8h-29.7v-8.8H775.3z M760.5,550.8h-29.7V542h29.7V550.8z M775.3,561.3h-29.7
							v-8.8h29.7V561.3z M760.5,571.9h-29.7v-8.8h29.7V571.9z M775.3,582.5h-29.7v-8.8h29.7V582.5z M760.5,593h-29.7v-8.8h29.7V593z
							 M775.3,603.6h-29.7v-8.8h29.7V603.6z M760.5,614.1h-29.7v-8.8h29.7V614.1z M775.3,624.7h-29.7v-8.8h29.7V624.7z M760.5,635.2
							h-29.7v-8.8h29.7V635.2z M775.3,645.8h-29.7V637h29.7V645.8z M760.5,656.3h-29.7v-8.8h29.7V656.3z M775.3,666.9h-29.7v-8.8
							h29.7V666.9z M760.5,677.4h-29.7v-8.8h29.7V677.4z M775.3,688h-29.7v-8.8h29.7V688z M760.5,698.5h-29.7v-8.8h29.7V698.5z
							 M775.3,709.1h-29.7v-8.8h29.7V709.1z M760.5,719.6h-29.7v-8.8h29.7V719.6z M775.3,730.2h-29.7v-8.8h29.7V730.2z M760.5,740.7
							h-29.7V732h29.7V740.7z M775.3,751.3h-29.7v-8.8h29.7V751.3z M760.5,761.8h-29.7v-8.8h29.7V761.8z M775.3,772.4h-29.7v-8.8
							h29.7V772.4z M651,763.6h29.7v8.8H651V763.6z M636.1,753.1h29.7v8.8h-29.7V753.1z M651,742.5h29.7v8.8H651V742.5z M636.1,732
							h29.7v8.8h-29.7V732z M651,721.4h29.7v8.8H651V721.4z M636.1,710.9h29.7v8.8h-29.7V710.9z M651,700.3h29.7v8.8H651V700.3z
							 M636.1,689.8h29.7v8.8h-29.7V689.8z M651,679.2h29.7v8.8H651V679.2z M636.1,668.7h29.7v8.8h-29.7V668.7z M651,658.1h29.7v8.8
							H651V658.1z M636.1,647.5h29.7v8.8h-29.7V647.5z M651,637h29.7v8.8H651V637z M636.1,626.4h29.7v8.8h-29.7V626.4z M651,615.9
							h29.7v8.8H651V615.9z M636.1,605.3h29.7v8.8h-29.7V605.3z M651,594.8h29.7v8.8H651V594.8z M636.1,584.2h29.7v8.8h-29.7V584.2z
							 M651,573.7h29.7v8.8H651V573.7z M636.1,563.1h29.7v8.8h-29.7V563.1z M651,552.6h29.7v8.8H651V552.6z M636.1,542h29.7v8.8
							h-29.7V542z M728.9,550.8h-29.7V542h29.7V550.8z M743.8,561.3h-29.7v-8.8h29.7V561.3z M728.9,571.9h-29.7v-8.8h29.7V571.9z
							 M743.8,582.5h-29.7v-8.8h29.7V582.5z M728.9,593h-29.7v-8.8h29.7V593z M743.8,603.6h-29.7v-8.8h29.7V603.6z M728.9,614.1
							h-29.7v-8.8h29.7V614.1z M743.8,624.7h-29.7v-8.8h29.7V624.7z M728.9,635.2h-29.7v-8.8h29.7V635.2z M743.8,645.8h-29.7V637
							h29.7V645.8z M728.9,656.3h-29.7v-8.8h29.7V656.3z M743.8,666.9h-29.7v-8.8h29.7V666.9z M728.9,677.4h-29.7v-8.8h29.7V677.4z
							 M743.8,688h-29.7v-8.8h29.7V688z M728.9,698.5h-29.7v-8.8h29.7V698.5z M743.8,709.1h-29.7v-8.8h29.7V709.1z M728.9,719.6
							h-29.7v-8.8h29.7V719.6z M743.8,730.2h-29.7v-8.8h29.7V730.2z M728.9,740.7h-29.7V732h29.7V740.7z M743.8,751.3h-29.7v-8.8
							h29.7V751.3z M728.9,761.8h-29.7v-8.8h29.7V761.8z M667.7,753.1h29.7v8.8h-29.7V753.1z M682.5,742.5h29.7v8.8h-29.7V742.5z
							 M667.7,732h29.7v8.8h-29.7V732z M682.5,721.4h29.7v8.8h-29.7V721.4z M667.7,710.9h29.7v8.8h-29.7V710.9z M682.5,700.3h29.7
							v8.8h-29.7V700.3z M667.7,689.8h29.7v8.8h-29.7V689.8z M682.5,679.2h29.7v8.8h-29.7V679.2z M667.7,668.7h29.7v8.8h-29.7V668.7
							z M682.5,658.1h29.7v8.8h-29.7V658.1z M667.7,647.5h29.7v8.8h-29.7V647.5z M682.5,637h29.7v8.8h-29.7V637z M667.7,626.4h29.7
							v8.8h-29.7V626.4z M682.5,615.9h29.7v8.8h-29.7V615.9z M667.7,605.3h29.7v8.8h-29.7V605.3z M682.5,594.8h29.7v8.8h-29.7V594.8
							z M667.7,584.2h29.7v8.8h-29.7V584.2z M682.5,573.7h29.7v8.8h-29.7V573.7z M667.7,563.1h29.7v8.8h-29.7V563.1z M682.5,552.6
							h29.7v8.8h-29.7V552.6z M697.4,550.8h-29.7V542h29.7V550.8z M682.5,763.6h29.7v8.8h-29.7V763.6z M714.1,763.6h29.7v8.8h-29.7
							V763.6z M743.8,531.5v8.8h-29.7v-8.8H743.8z M712.3,531.5v8.8h-29.7v-8.8H712.3z M680.8,531.5v8.8H651v-8.8H680.8z
							 M619.5,531.5h29.7v8.8h-29.7V531.5z M604.6,550.8V542h29.7v8.8H604.6z M619.5,552.6h29.7v8.8h-29.7V552.6z M604.6,571.9v-8.8
							h29.7v8.8H604.6z M619.5,573.7h29.7v8.8h-29.7V573.7z M604.6,593v-8.8h29.7v8.8H604.6z M619.5,594.8h29.7v8.8h-29.7V594.8z
							 M604.6,614.1v-8.8h29.7v8.8H604.6z M619.5,615.9h29.7v8.8h-29.7V615.9z M604.6,635.2v-8.8h29.7v8.8H604.6z M619.5,637h29.7
							v8.8h-29.7V637z M604.6,656.3v-8.8h29.7v8.8H604.6z M619.5,658.1h29.7v8.8h-29.7V658.1z M604.6,677.4v-8.8h29.7v8.8H604.6z
							 M619.5,679.2h29.7v8.8h-29.7V679.2z M604.6,698.5v-8.8h29.7v8.8H604.6z M619.5,700.3h29.7v8.8h-29.7V700.3z M604.6,719.6
							v-8.8h29.7v8.8H604.6z M619.5,721.4h29.7v8.8h-29.7V721.4z M604.6,740.7V732h29.7v8.8H604.6z M619.5,742.5h29.7v8.8h-29.7
							V742.5z M604.6,761.8v-8.8h29.7v8.8H604.6z M619.5,763.6h29.7v8.8h-29.7V763.6z M604.6,782.9v-8.8h29.7v8.8H604.6z
							 M636.1,782.9v-8.8h29.7v8.8H636.1z M667.7,782.9v-8.8h29.7v8.8H667.7z M699.2,782.9v-8.8h29.7v8.8H699.2z M730.7,782.9v-8.8
							h29.7v8.8H730.7z M792,782.9h-29.7v-8.8H792V782.9z M806.9,763.6v8.8h-29.7v-8.8H806.9z M792,761.8h-29.7v-8.8H792V761.8z
							 M806.9,742.5v8.8h-29.7v-8.8H806.9z M792,740.7h-29.7V732H792V740.7z M806.9,721.4v8.8h-29.7v-8.8H806.9z M792,719.6h-29.7
							v-8.8H792V719.6z M806.9,700.3v8.8h-29.7v-8.8H806.9z M792,698.5h-29.7v-8.8H792V698.5z M806.9,679.2v8.8h-29.7v-8.8H806.9z
							 M792,677.4h-29.7v-8.8H792V677.4z M806.9,658.1v8.8h-29.7v-8.8H806.9z M792,656.3h-29.7v-8.8H792V656.3z M806.9,637v8.8
							h-29.7V637H806.9z M792,635.2h-29.7v-8.8H792V635.2z M806.9,615.9v8.8h-29.7v-8.8H806.9z M792,614.1h-29.7v-8.8H792V614.1z
							 M806.9,594.8v8.8h-29.7v-8.8H806.9z M792,593h-29.7v-8.8H792V593z M806.9,573.7v8.8h-29.7v-8.8H806.9z M792,571.9h-29.7v-8.8
							H792V571.9z M806.9,552.6v8.8h-29.7v-8.8H806.9z M792,550.8h-29.7V542H792V550.8z M806.9,540.2h-29.7v-8.8h29.7V540.2z"/>
					</g>
					<g>
						<g>
							<g>
								<path class="st14" d="M554.9,778.5l-5.5-6.4l0.1-0.1l-12.2-14.1l0,0L475.2,686c0,0,0,0,0,0c-4-4.6-10.9-5.1-15.6-1.1
									c-4.6,4-5.1,10.9-1.1,15.6l0,0l62.1,71.9l0,0l12,13.9c0,0,0,0,0,0l5.7,6.6c1.4,1.7,4,1.9,5.7,0.4l10.5-9.1
									C556.2,782.7,556.4,780.2,554.9,778.5z"/>
								<path class="st14" d="M439.7,682.2c14.6-0.5,26.2-12.4,26.2-27.1v-16.1c-6.2-1.5-10.8-5.8-11.6-11.1h-27.1
									c-0.1,8.4-0.6,14.9-1.7,16.9c-2.4,4.5-9.1,5.5-13.7,5.7v4.6c0,14.7,11.7,26.6,26.2,27.1h-10.7l14.3,38l15.3-38H439.7z"/>
							</g>
							<path class="st14" d="M416.1,815.3c0,2.2-1.8,4-4,4h-13.9c-2.2,0-4-1.8-4-4v-8.7c0-2.2,1.8-4,4-4H412c2.2,0,4,1.8,4,4V815.3z
								"/>
						</g>
						<polygon class="st27" points="466.8,860.4 405.1,860.4 405.1,682.2 426.7,682.2 440.4,704.8 453.8,682.2 466.8,682.2 						
							"/>
						<path class="st14" d="M405.1,682.2c-6.1,0-11,4.9-11,11v0h0v95h22.1v-95c0,0,0,0,0,0C416.1,687.2,411.2,682.2,405.1,682.2z"/>
						<rect x="394.1" y="788.3" class="st14" width="22.1" height="18.7"/>
						<path class="st19" d="M411.8,643.6v-5.9c0-3.4,0.7-6.6,1.8-9.6c0.2-0.5,0.4-1,0.7-1.6c2.6-5.8,7.2-10.4,12.9-13.2
							c3.5-1.7,7.5-2.7,11.7-2.7c7.4,0,14.1,3,18.9,7.8c2.7,2.7,4.9,6,6.3,9.7c1.1,3,1.8,6.2,1.8,9.6v1.4c-5.2-1.3-9.3-4.5-10.9-8.7
							c-2.8,4.8-9.1,8.1-16.3,8.1c-4.3,0-8.3-1.2-11.4-3.1"/>
						<path class="st19" d="M438.7,610.6c-4.2,0-8.2,1-11.7,2.7c-6.2,3-11.1,8.3-13.6,14.7c-1.1,3-1.8,6.2-1.8,9.6V651
							c4.6-0.2,11.3-1.2,13.7-5.7c1.1-2,2-8.8,1.7-17.4H464C460.1,617.8,450.3,610.6,438.7,610.6z"/>
						<path class="st19" d="M410.5,650.4h1.4V683c0,7.5-6.1,13.5-13.5,13.5h-1.4V664C396.9,656.5,403,650.4,410.5,650.4z"/>
					</g>
					<g>
						<polygon class="st1" points="591,681.3 576.7,719.4 561.4,681.3 						"/>
						
							<rect x="476.3" y="753.3" transform="matrix(0.6898 -0.724 0.724 0.6898 -407.3881 587.0391)" class="st64" width="10" height="31.1"/>
						<path class="st12" d="M599.3,813.2c0,3.1,2.5,5.7,5.7,5.7h19.7c3.1,0,5.7-2.5,5.7-5.7V801c0-3.1-2.5-5.7-5.7-5.7H605
							c-3.1,0-5.7,2.5-5.7,5.7V813.2z"/>
						<rect x="599.2" y="791.4" class="st12" width="31.1" height="10"/>
						<path class="st65" d="M630.3,696.9c0-8.6-7-15.6-15.6-15.6h-64.8v0c-4.1,0-8.2,1.6-11.3,4.8l-65.2,68.4L496,776l53.9-56.6
							v99.5h64.8v-27.5h15.6V696.9z"/>
						<g>
							<path class="st27" d="M577.5,759.7c0,1.1,0.9,2,2,2c1.1,0,2-0.9,2-2c0-1.1-0.9-2-2-2C578.4,757.7,577.5,758.6,577.5,759.7z"
								/>
							<path class="st27" d="M577.5,775.4c0,1.1,0.9,2,2,2c1.1,0,2-0.9,2-2s-0.9-2-2-2C578.4,773.4,577.5,774.3,577.5,775.4z"/>
						</g>
						<path class="st12" d="M591.1,626.9c0.1,8.4,0.6,15,1.7,17c2.4,4.5,9.1,5.5,13.8,5.7v4.6c0,15-12.2,27.2-27.2,27.2
							c-15,0-27.2-12.2-27.2-27.2v-17.6c0-3.4,0.7-6.7,1.8-9.7H591.1z"/>
						<path class="st19" d="M579.4,609.4c4.2,0,8.2,1,11.8,2.7c6.2,3,11.1,8.3,13.6,14.8c1.1,3,1.8,6.3,1.8,9.7v13
							c-4.7-0.2-11.3-1.2-13.8-5.7c-1.1-2-1.6-8.6-1.7-17h-37C558,616.7,567.8,609.4,579.4,609.4z"/>
						<g>
							<defs>
								<polygon id="SVGID_13_" points="594.1,681.3 579.8,743.4 564.5,681.3 								"/>
							</defs>
							<use xlink:href="#SVGID_13_"  style="overflow:visible;fill:#FFFFFF;"/>
							<clipPath id="SVGID_14_">
								<use xlink:href="#SVGID_13_"  style="overflow:visible;"/>
							</clipPath>
							<g class="st66">
								<g>
									
										<rect x="573.5" y="683.6" transform="matrix(0.7072 -0.707 0.707 0.7072 -317.8205 611.4483)" class="st6" width="11.6" height="11.6"/>
									<polygon class="st6" points="572.2,715.3 579.8,746.2 586.9,715.4 579.3,697.6 									"/>
								</g>
								<g>
									<polygon class="st25" points="579.3,681.3 592,694.1 595,681.3 									"/>
									<polygon class="st25" points="566.8,693.8 579.3,681.3 563.7,681.3 									"/>
								</g>
							</g>
						</g>
					</g>
					<g>
						<g>
							<path class="st44" d="M467.3,826.5c0,2.2,1.8,4,4,4h14c2.2,0,4-1.8,4-4v-8.7c0-2.2-1.8-4-4-4h-14c-2.2,0-4,1.8-4,4V826.5z"/>
							<rect x="467.2" y="736.1" class="st44" width="22.1" height="81.9"/>
							<circle class="st16" cx="478.3" cy="715.5" r="11.1"/>
							<rect x="467.2" y="715.5" class="st16" width="22.1" height="20.6"/>
						</g>
						<polygon class="st19" points="519.9,671.3 519.9,714.2 480.5,714.2 480.6,671.3 						"/>
						<rect x="478.3" y="791.9" class="st17" width="61.6" height="66.4"/>
						<rect x="478.3" y="704.4" class="st6" width="61.8" height="87.4"/>
						<g>
							<g>
								<rect x="478.3" y="775.3" class="st4" width="62.7" height="85.2"/>
								<rect x="478.3" y="704.4" class="st4" width="62.9" height="70.8"/>
							</g>
							<path class="st44" d="M519,669c-1-1.9-1.5-8.2-1.6-16.1h-25.8c-0.7,5-5.1,9.1-11,10.6v15.3c0,13.2,9.9,24.1,22.7,25.6h-11.4
								l15.3,38l14.3-38h-12c12.8-1.5,22.7-12.4,22.7-25.6v-4.4C527.6,674.2,521.3,673.2,519,669z"/>
						</g>
						<g>
							<path class="st44" d="M467.1,826.5c0,2.2,1.8,4,4,4h14c2.2,0,4-1.8,4-4v-8.7c0-2.2-1.8-4-4-4h-14c-2.2,0-4,1.8-4,4V826.5z"/>
							<rect x="467" y="736.1" class="st44" width="22.1" height="81.9"/>
							<g>
								<path class="st4" d="M467,715.7c0,6.2,5,11.3,11.3,11.3c6.2,0,11.3-5,11.3-11.3s-5-11.3-11.3-11.3
									C472,704.4,467,709.5,467,715.7z"/>
								<rect x="467" y="715.7" class="st4" width="22.5" height="21"/>
							</g>
						</g>
						<g>
							<path class="st44" d="M529.2,826.5c0,2.2,1.8,4,4,4h14c2.2,0,4-1.8,4-4v-8.7c0-2.2-1.8-4-4-4h-14c-2.2,0-4,1.8-4,4V826.5z"/>
							<rect x="529.1" y="736.1" class="st44" width="22.1" height="81.9"/>
							<g>
								<path class="st4" d="M529.1,715.7c0,6.2,5,11.3,11.3,11.3c6.2,0,11.3-5,11.3-11.3s-5-11.3-11.3-11.3
									C534.1,704.4,529.1,709.5,529.1,715.7z"/>
								<rect x="529.1" y="715.7" class="st4" width="22.5" height="21"/>
							</g>
							<g>
								<path class="st67" d="M478.3,704.4c-7.3,0-13.2,5.9-13.2,13.2c0,0,0,0,0,0v23.9h0v65.5h26.4v-64.8v-0.7v-23.9h0
									C491.5,710.4,485.5,704.4,478.3,704.4z"/>
								<path class="st67" d="M553.5,717.7c0-7.3-5.9-13.2-13.2-13.2c-7.3,0-13.2,5.9-13.2,13.2c0,0,0,0,0,0v23.9h0v65.5h26.4v-64.8
									v-0.7L553.5,717.7L553.5,717.7z"/>
							</g>
						</g>
						<rect x="478.3" y="704.4" class="st67" width="20.5" height="97.5"/>
						<rect x="514.5" y="704.4" class="st67" width="27.2" height="97.5"/>
						<path class="st19" d="M530.3,652.8c-0.2-0.5-0.4-1-0.6-1.5c-2.5-5.5-6.8-9.9-12.3-12.5c-3.4-1.6-7.1-2.6-11.1-2.6
							c-7,0-13.4,2.8-18,7.4c-2.6,2.6-4.7,5.7-6,9.2c-1.1,2.9-1.7,5.9-1.7,9.2v1.4c5-1.2,8.9-4.3,10.4-8.2c2.7,4.5,8.6,7.7,15.5,7.7
							c4.1,0,7.9-1.1,10.8-3v54.3h14.7v-39.8V662C532.1,658.8,531.4,655.7,530.3,652.8z"/>
						<g>
							<path class="st67" d="M532.1,662c0,0-5.9-11.6-17-11.6c-11.1,0-23.5,2.4-23.5,2.4l-6.5-5.3v-15.4h47V662z"/>
							<polygon class="st68" points="468.7,630.8 509.1,644 549.5,630.8 509.1,617.6 							"/>
							<g>
								<path class="st69" d="M511.1,631.2c0.1-0.1,0.1-0.2,0.1-0.3c0-0.7-1.1-1.3-2.5-1.3s-2.5,0.6-2.5,1.3c0,0.7,1.1,1.3,2.5,1.3
									c0,0,0,0,0,0v0l15,7.6v19.8l2.1,0.2v-21.1L511.1,631.2z"/>
								<path class="st69" d="M522.8,667.7l1.2-11.3v0h0h0.4h0.7h0.2h0.2l1.2,11.4c0,0,0,0.1,0,0.1c0,0.6-0.9,1-2,1s-2-0.5-2-1
									C522.8,667.7,522.8,667.7,522.8,667.7z"/>
								
									<rect x="523.7" y="653.5" transform="matrix(-1 -6.022795e-11 6.022795e-11 -1 1049.5789 1312.4944)" class="st70" width="2.1" height="5.5"/>
							</g>
						</g>
					</g>
					<g>
						<g>
							<path class="st1" d="M450.4,664.7c-5.5,0-9.9-4.4-9.9-9.9h19.8C460.3,660.2,455.8,664.7,450.4,664.7z"/>
						</g>
					</g>
					<path class="st1" d="M569.4,664.7c-5.5,0-9.9-4.4-9.9-9.9h19.8C579.3,660.2,574.8,664.7,569.4,664.7z"/>
					<path class="st1" d="M495.4,691.1c-4.3,0-7.9-3.5-7.9-7.9h15.7C503.3,687.6,499.8,691.1,495.4,691.1z"/>
				</g>
				<g class="st71">
					<g class="st30">
						<polygon class="st1" points="663.8,662.2 663.8,722.2 603.9,782.7 543.4,782.7 						"/>
					</g>
					<g class="st30">
						<polygon class="st1" points="673.6,619.6 673.6,634.6 515.7,792.5 500.9,792.5 						"/>
					</g>
				</g>
			</g>
			<g>
				<polygon class="st61" points="681.3,554.8 341.6,554.8 362,575.1 660.9,575.1 				"/>
				<polygon class="st58" points="681.3,802 341.6,802 362,781.7 660.9,781.7 				"/>
				<polygon class="st61" points="341.6,554.8 341.6,802 362,781.7 362,575.1 				"/>
				<polygon class="st58" points="681.3,802 681.3,554.8 660.9,575.1 660.9,781.7 				"/>
			</g>
			<g>
				<polygon class="st58" points="674.6,561.5 348.3,561.5 362,575.1 660.9,575.1 				"/>
				<polygon class="st61" points="674.6,795.3 348.3,795.3 362,781.7 660.9,781.7 				"/>
				<polygon class="st58" points="348.3,561.5 348.3,795.3 362,781.7 362,575.1 				"/>
				<polygon class="st61" points="674.6,795.3 674.6,561.5 660.9,575.1 660.9,781.7 				"/>
			</g>
			<polygon class="st31" points="692.5,566 681.3,554.8 681.3,802 341.6,802 352.9,813.2 692.5,813.2 			"/>
		</g>
		<g>
			<g>
				<defs>
					<rect id="SVGID_15_" x="-67.8" y="120.6" width="299" height="206.6"/>
				</defs>
				<clipPath id="SVGID_16_">
					<use xlink:href="#SVGID_15_"  style="overflow:visible;"/>
				</clipPath>
				<g class="st72">
					<rect x="-161.8" y="308.9" class="st22" width="379.9" height="79.5"/>
					<rect x="-161.8" y="229" class="st9" width="379.9" height="79.5"/>
					<rect x="-161.8" y="-34.6" class="st4" width="379.9" height="263.4"/>
					<rect x="-161.8" y="388.4" class="st9" width="567.7" height="129.8"/>
					<g>
						<g>
							<rect x="378.9" y="119.2" class="st63" width="14.9" height="8.8"/>
							<rect x="158.2" y="119.2" class="st63" width="29.7" height="8.8"/>
							<rect x="189.7" y="119.2" class="st63" width="29.7" height="8.8"/>
							<rect x="221.2" y="119.2" class="st63" width="29.7" height="8.8"/>
							<rect x="252.8" y="119.2" class="st63" width="29.7" height="8.8"/>
							<rect x="284.3" y="119.2" class="st63" width="29.7" height="8.8"/>
							<rect x="315.8" y="119.2" class="st63" width="29.7" height="8.8"/>
							<rect x="347.3" y="119.2" class="st63" width="29.7" height="8.8"/>
							<rect x="158.2" y="108.6" class="st63" width="14.9" height="8.8"/>
							<rect x="364" y="108.6" class="st63" width="29.7" height="8.8"/>
							<rect x="332.5" y="108.6" class="st63" width="29.7" height="8.8"/>
							<rect x="300.9" y="108.6" class="st63" width="29.7" height="8.8"/>
							<rect x="269.4" y="108.6" class="st63" width="29.7" height="8.8"/>
							<rect x="237.9" y="108.6" class="st63" width="29.7" height="8.8"/>
							<rect x="206.4" y="108.6" class="st63" width="29.7" height="8.8"/>
							<rect x="174.8" y="108.6" class="st63" width="29.7" height="8.8"/>
							<rect x="378.9" y="98.1" class="st63" width="14.9" height="8.8"/>
							<rect x="158.2" y="98.1" class="st63" width="29.7" height="8.8"/>
							<rect x="189.7" y="98.1" class="st63" width="29.7" height="8.8"/>
							<rect x="221.2" y="98.1" class="st63" width="29.7" height="8.8"/>
							<rect x="252.8" y="98.1" class="st63" width="29.7" height="8.8"/>
							<rect x="284.3" y="98.1" class="st63" width="29.7" height="8.8"/>
							<rect x="315.8" y="98.1" class="st63" width="29.7" height="8.8"/>
							<rect x="347.3" y="98.1" class="st63" width="29.7" height="8.8"/>
							<rect x="158.2" y="87.5" class="st63" width="14.9" height="8.8"/>
							<rect x="364" y="87.5" class="st63" width="29.7" height="8.8"/>
							<rect x="332.5" y="87.5" class="st63" width="29.7" height="8.8"/>
							<rect x="300.9" y="87.5" class="st63" width="29.7" height="8.8"/>
							<rect x="269.4" y="87.5" class="st63" width="29.7" height="8.8"/>
							<rect x="237.9" y="87.5" class="st63" width="29.7" height="8.8"/>
							<rect x="206.4" y="87.5" class="st63" width="29.7" height="8.8"/>
							<rect x="174.8" y="87.5" class="st63" width="29.7" height="8.8"/>
							<rect x="378.9" y="161.4" class="st63" width="14.9" height="8.8"/>
							<rect x="158.2" y="161.4" class="st63" width="29.7" height="8.8"/>
							<rect x="189.7" y="161.4" class="st63" width="29.7" height="8.8"/>
							<rect x="221.2" y="161.4" class="st63" width="29.7" height="8.8"/>
							<rect x="252.8" y="161.4" class="st63" width="29.7" height="8.8"/>
							<rect x="284.3" y="161.4" class="st63" width="29.7" height="8.8"/>
							<rect x="315.8" y="161.4" class="st63" width="29.7" height="8.8"/>
							<rect x="347.3" y="161.4" class="st63" width="29.7" height="8.8"/>
							<rect x="158.2" y="150.8" class="st63" width="14.9" height="8.8"/>
							<rect x="364" y="150.8" class="st63" width="29.7" height="8.8"/>
							<rect x="332.5" y="150.8" class="st63" width="29.7" height="8.8"/>
							<rect x="300.9" y="150.8" class="st63" width="29.7" height="8.8"/>
							<rect x="269.4" y="150.8" class="st63" width="29.7" height="8.8"/>
							<rect x="237.9" y="150.8" class="st63" width="29.7" height="8.8"/>
							<rect x="206.4" y="150.8" class="st63" width="29.7" height="8.8"/>
							<rect x="174.8" y="150.8" class="st63" width="29.7" height="8.8"/>
							<rect x="378.9" y="140.3" class="st63" width="14.9" height="8.8"/>
							<rect x="158.2" y="140.3" class="st63" width="29.7" height="8.8"/>
							<rect x="189.7" y="140.3" class="st63" width="29.7" height="8.8"/>
							<rect x="221.2" y="140.3" class="st63" width="29.7" height="8.8"/>
							<rect x="252.8" y="140.3" class="st63" width="29.7" height="8.8"/>
							<rect x="284.3" y="140.3" class="st63" width="29.7" height="8.8"/>
							<rect x="315.8" y="140.3" class="st63" width="29.7" height="8.8"/>
							<rect x="347.3" y="140.3" class="st63" width="29.7" height="8.8"/>
							<rect x="158.2" y="129.7" class="st63" width="14.9" height="8.8"/>
							<rect x="364" y="129.7" class="st63" width="29.7" height="8.8"/>
							<rect x="332.5" y="129.7" class="st63" width="29.7" height="8.8"/>
							<rect x="300.9" y="129.7" class="st63" width="29.7" height="8.8"/>
							<rect x="269.4" y="129.7" class="st63" width="29.7" height="8.8"/>
							<rect x="237.9" y="129.7" class="st63" width="29.7" height="8.8"/>
							<rect x="206.4" y="129.7" class="st63" width="29.7" height="8.8"/>
							<rect x="174.8" y="129.7" class="st63" width="29.7" height="8.8"/>
							<rect x="378.9" y="203.6" class="st63" width="14.9" height="8.8"/>
							<rect x="158.2" y="203.6" class="st63" width="29.7" height="8.8"/>
							<rect x="189.7" y="203.6" class="st63" width="29.7" height="8.8"/>
							<rect x="221.2" y="203.6" class="st63" width="29.7" height="8.8"/>
							<rect x="252.8" y="203.6" class="st63" width="29.7" height="8.8"/>
							<rect x="284.3" y="203.6" class="st63" width="29.7" height="8.8"/>
							<rect x="315.8" y="203.6" class="st63" width="29.7" height="8.8"/>
							<rect x="347.3" y="203.6" class="st63" width="29.7" height="8.8"/>
							<rect x="158.2" y="193" class="st63" width="14.9" height="8.8"/>
							<rect x="364" y="193" class="st63" width="29.7" height="8.8"/>
							<rect x="332.5" y="193" class="st63" width="29.7" height="8.8"/>
							<rect x="300.9" y="193" class="st63" width="29.7" height="8.8"/>
							<rect x="269.4" y="193" class="st63" width="29.7" height="8.8"/>
							<rect x="237.9" y="193" class="st63" width="29.7" height="8.8"/>
							<rect x="206.4" y="193" class="st63" width="29.7" height="8.8"/>
							<rect x="174.8" y="193" class="st63" width="29.7" height="8.8"/>
							<rect x="378.9" y="182.5" class="st63" width="14.9" height="8.8"/>
							<rect x="158.2" y="182.5" class="st63" width="29.7" height="8.8"/>
							<rect x="189.7" y="182.5" class="st63" width="29.7" height="8.8"/>
							<rect x="221.2" y="182.5" class="st63" width="29.7" height="8.8"/>
							<rect x="252.8" y="182.5" class="st63" width="29.7" height="8.8"/>
							<rect x="284.3" y="182.5" class="st63" width="29.7" height="8.8"/>
							<rect x="315.8" y="182.5" class="st63" width="29.7" height="8.8"/>
							<rect x="347.3" y="182.5" class="st63" width="29.7" height="8.8"/>
							<rect x="158.2" y="171.9" class="st63" width="14.9" height="8.8"/>
							<rect x="364" y="171.9" class="st63" width="29.7" height="8.8"/>
							<rect x="332.5" y="171.9" class="st63" width="29.7" height="8.8"/>
							<rect x="300.9" y="171.9" class="st63" width="29.7" height="8.8"/>
							<rect x="269.4" y="171.9" class="st63" width="29.7" height="8.8"/>
							<rect x="237.9" y="171.9" class="st63" width="29.7" height="8.8"/>
							<rect x="206.4" y="171.9" class="st63" width="29.7" height="8.8"/>
							<rect x="174.8" y="171.9" class="st63" width="29.7" height="8.8"/>
							<rect x="378.9" y="245.8" class="st63" width="14.9" height="8.8"/>
							<rect x="158.2" y="245.8" class="st63" width="29.7" height="8.8"/>
							<rect x="189.7" y="245.8" class="st63" width="29.7" height="8.8"/>
							<rect x="221.2" y="245.8" class="st63" width="29.7" height="8.8"/>
							<rect x="252.8" y="245.8" class="st63" width="29.7" height="8.8"/>
							<rect x="284.3" y="245.8" class="st63" width="29.7" height="8.8"/>
							<rect x="315.8" y="245.8" class="st63" width="29.7" height="8.8"/>
							<rect x="347.3" y="245.8" class="st63" width="29.7" height="8.8"/>
							<rect x="158.2" y="235.2" class="st63" width="14.9" height="8.8"/>
							<rect x="364" y="235.2" class="st63" width="29.7" height="8.8"/>
							<rect x="332.5" y="235.2" class="st63" width="29.7" height="8.8"/>
							<rect x="300.9" y="235.2" class="st63" width="29.7" height="8.8"/>
							<rect x="269.4" y="235.2" class="st63" width="29.7" height="8.8"/>
							<rect x="237.9" y="235.2" class="st63" width="29.7" height="8.8"/>
							<rect x="206.4" y="235.2" class="st63" width="29.7" height="8.8"/>
							<rect x="174.8" y="235.2" class="st63" width="29.7" height="8.8"/>
							<rect x="378.9" y="224.7" class="st63" width="14.9" height="8.8"/>
							<rect x="158.2" y="224.7" class="st63" width="29.7" height="8.8"/>
							<rect x="189.7" y="224.7" class="st63" width="29.7" height="8.8"/>
							<rect x="221.2" y="224.7" class="st63" width="29.7" height="8.8"/>
							<rect x="252.8" y="224.7" class="st63" width="29.7" height="8.8"/>
							<rect x="284.3" y="224.7" class="st63" width="29.7" height="8.8"/>
							<rect x="315.8" y="224.7" class="st63" width="29.7" height="8.8"/>
							<rect x="347.3" y="224.7" class="st63" width="29.7" height="8.8"/>
							<rect x="158.2" y="214.1" class="st63" width="14.9" height="8.8"/>
							<rect x="364" y="214.1" class="st63" width="29.7" height="8.8"/>
							<rect x="332.5" y="214.1" class="st63" width="29.7" height="8.8"/>
							<rect x="300.9" y="214.1" class="st63" width="29.7" height="8.8"/>
							<rect x="269.4" y="214.1" class="st63" width="29.7" height="8.8"/>
							<rect x="237.9" y="214.1" class="st63" width="29.7" height="8.8"/>
							<rect x="206.4" y="214.1" class="st63" width="29.7" height="8.8"/>
							<rect x="174.8" y="214.1" class="st63" width="29.7" height="8.8"/>
							<rect x="378.9" y="288" class="st63" width="14.9" height="8.8"/>
							<rect x="158.2" y="288" class="st63" width="29.7" height="8.8"/>
							<rect x="189.7" y="288" class="st63" width="29.7" height="8.8"/>
							<rect x="221.2" y="288" class="st63" width="29.7" height="8.8"/>
							<rect x="252.8" y="288" class="st63" width="29.7" height="8.8"/>
							<rect x="284.3" y="288" class="st63" width="29.7" height="8.8"/>
							<rect x="315.8" y="288" class="st63" width="29.7" height="8.8"/>
							<rect x="347.3" y="288" class="st63" width="29.7" height="8.8"/>
							<rect x="158.2" y="277.4" class="st63" width="14.9" height="8.8"/>
							<rect x="364" y="277.4" class="st63" width="29.7" height="8.8"/>
							<rect x="332.5" y="277.4" class="st63" width="29.7" height="8.8"/>
							<rect x="300.9" y="277.4" class="st63" width="29.7" height="8.8"/>
							<rect x="269.4" y="277.4" class="st63" width="29.7" height="8.8"/>
							<rect x="237.9" y="277.4" class="st63" width="29.7" height="8.8"/>
							<rect x="206.4" y="277.4" class="st63" width="29.7" height="8.8"/>
							<rect x="174.8" y="277.4" class="st63" width="29.7" height="8.8"/>
							<rect x="378.9" y="266.9" class="st63" width="14.9" height="8.8"/>
							<rect x="158.2" y="266.9" class="st63" width="29.7" height="8.8"/>
							<rect x="189.7" y="266.9" class="st63" width="29.7" height="8.8"/>
							<rect x="221.2" y="266.9" class="st63" width="29.7" height="8.8"/>
							<rect x="252.8" y="266.9" class="st63" width="29.7" height="8.8"/>
							<rect x="284.3" y="266.9" class="st63" width="29.7" height="8.8"/>
							<rect x="315.8" y="266.9" class="st63" width="29.7" height="8.8"/>
							<rect x="347.3" y="266.9" class="st63" width="29.7" height="8.8"/>
							<rect x="158.2" y="256.3" class="st63" width="14.9" height="8.8"/>
							<rect x="364" y="256.3" class="st63" width="29.7" height="8.8"/>
							<rect x="332.5" y="256.3" class="st63" width="29.7" height="8.8"/>
							<rect x="300.9" y="256.3" class="st63" width="29.7" height="8.8"/>
							<rect x="269.4" y="256.3" class="st63" width="29.7" height="8.8"/>
							<rect x="237.9" y="256.3" class="st63" width="29.7" height="8.8"/>
							<rect x="206.4" y="256.3" class="st63" width="29.7" height="8.8"/>
							<rect x="174.8" y="256.3" class="st63" width="29.7" height="8.8"/>
							<rect x="378.9" y="330.2" class="st63" width="14.9" height="8.8"/>
							<rect x="158.2" y="330.2" class="st63" width="29.7" height="8.8"/>
							<rect x="189.7" y="330.2" class="st63" width="29.7" height="8.8"/>
							<rect x="221.2" y="330.2" class="st63" width="29.7" height="8.8"/>
							<rect x="252.8" y="330.2" class="st63" width="29.7" height="8.8"/>
							<rect x="284.3" y="330.2" class="st63" width="29.7" height="8.8"/>
							<rect x="315.8" y="330.2" class="st63" width="29.7" height="8.8"/>
							<rect x="347.3" y="330.2" class="st63" width="29.7" height="8.8"/>
							<rect x="158.2" y="319.7" class="st63" width="14.9" height="8.8"/>
							<rect x="364" y="319.7" class="st63" width="29.7" height="8.8"/>
							<rect x="332.5" y="319.7" class="st63" width="29.7" height="8.8"/>
							<rect x="300.9" y="319.7" class="st63" width="29.7" height="8.8"/>
							<rect x="269.4" y="319.7" class="st63" width="29.7" height="8.8"/>
							<rect x="237.9" y="319.7" class="st63" width="29.7" height="8.8"/>
							<rect x="206.4" y="319.7" class="st63" width="29.7" height="8.8"/>
							<rect x="174.8" y="319.7" class="st63" width="29.7" height="8.8"/>
							<rect x="378.9" y="309.1" class="st63" width="14.9" height="8.8"/>
							<rect x="158.2" y="309.1" class="st63" width="29.7" height="8.8"/>
							<rect x="189.7" y="309.1" class="st63" width="29.7" height="8.8"/>
							<rect x="221.2" y="309.1" class="st63" width="29.7" height="8.8"/>
							<rect x="252.8" y="309.1" class="st63" width="29.7" height="8.8"/>
							<rect x="284.3" y="309.1" class="st63" width="29.7" height="8.8"/>
							<rect x="315.8" y="309.1" class="st63" width="29.7" height="8.8"/>
							<rect x="347.3" y="309.1" class="st63" width="29.7" height="8.8"/>
							<rect x="158.2" y="298.6" class="st63" width="14.9" height="8.8"/>
							<rect x="364" y="298.6" class="st63" width="29.7" height="8.8"/>
							<rect x="332.5" y="298.6" class="st63" width="29.7" height="8.8"/>
							<rect x="300.9" y="298.6" class="st63" width="29.7" height="8.8"/>
							<rect x="269.4" y="298.6" class="st63" width="29.7" height="8.8"/>
							<rect x="237.9" y="298.6" class="st63" width="29.7" height="8.8"/>
							<rect x="206.4" y="298.6" class="st63" width="29.7" height="8.8"/>
							<rect x="174.8" y="298.6" class="st63" width="29.7" height="8.8"/>
							<rect x="378.9" y="77" class="st63" width="14.9" height="8.8"/>
							<rect x="158.2" y="77" class="st63" width="29.7" height="8.8"/>
							<rect x="189.7" y="77" class="st63" width="29.7" height="8.8"/>
							<rect x="221.2" y="77" class="st63" width="29.7" height="8.8"/>
							<rect x="252.8" y="77" class="st63" width="29.7" height="8.8"/>
							<rect x="284.3" y="77" class="st63" width="29.7" height="8.8"/>
							<rect x="315.8" y="77" class="st63" width="29.7" height="8.8"/>
							<rect x="347.3" y="77" class="st63" width="29.7" height="8.8"/>
							<rect x="158.2" y="66.4" class="st63" width="14.9" height="8.8"/>
							<rect x="364" y="66.4" class="st63" width="29.7" height="8.8"/>
							<rect x="332.5" y="66.4" class="st63" width="29.7" height="8.8"/>
							<rect x="300.9" y="66.4" class="st63" width="29.7" height="8.8"/>
							<rect x="269.4" y="66.4" class="st63" width="29.7" height="8.8"/>
							<rect x="237.9" y="66.4" class="st63" width="29.7" height="8.8"/>
							<rect x="206.4" y="66.4" class="st63" width="29.7" height="8.8"/>
							<rect x="174.8" y="66.4" class="st63" width="29.7" height="8.8"/>
						</g>
						<path class="st44" d="M393.8,77v-1.8H364v-8.8h-1.8v8.8h-29.7v-8.8h-1.8v8.8h-29.7v-8.8h-1.8v8.8h-29.7v-8.8h-1.8v8.8h-29.7
							v-8.8h-1.8v8.8h-29.7v-8.8h-1.8v8.8h-29.7v-8.8H173v8.8h-14.9V77h29.7v8.8h-29.7v1.8H173v8.8h-14.9v1.8h29.7v8.8h-29.7v1.8
							H173v8.8h-14.9v1.8h29.7v8.8h-29.7v1.8H173v8.8h-14.9v1.8h29.7v8.8h-29.7v1.8H173v8.8h-14.9v1.8h29.7v8.8h-29.7v1.8H173v8.8
							h-14.9v1.8h29.7v8.8h-29.7v1.8H173v8.8h-14.9v1.8h29.7v8.8h-29.7v1.8H173v8.8h-14.9v1.8h29.7v8.8h-29.7v1.8H173v8.8h-14.9v1.8
							h29.7v8.8h-29.7v1.8H173v8.8h-14.9v1.8h29.7v8.8h-29.7v1.8H173v8.8h-14.9v1.8h29.7v8.8h-29.7v1.8H173v8.8h-14.9v1.8h29.7v8.8
							h-29.7v1.8H173v8.8h-14.9v1.8h29.7v8.8h-29.7v68.6h235.6V339h-14.9v-8.8h14.9v-1.8H364v-8.8h29.7v-1.8h-14.9v-8.8h14.9v-1.8
							H364v-8.8h29.7v-1.8h-14.9V288h14.9v-1.8H364v-8.8h29.7v-1.8h-14.9v-8.8h14.9v-1.8H364v-8.8h29.7v-1.8h-14.9v-8.8h14.9V244
							H364v-8.8h29.7v-1.8h-14.9v-8.8h14.9v-1.8H364v-8.8h29.7v-1.8h-14.9v-8.8h14.9v-1.8H364V193h29.7v-1.8h-14.9v-8.8h14.9v-1.8
							H364v-8.8h29.7v-1.8h-14.9v-8.8h14.9v-1.8H364v-8.8h29.7V149h-14.9v-8.8h14.9v-1.8H364v-8.8h29.7v-1.8h-14.9v-8.8h14.9v-1.8
							H364v-8.8h29.7v-1.8h-14.9v-8.8h14.9v-1.8H364v-8.8h29.7v-1.8h-14.9V77H393.8z M345.6,77v8.8h-29.7V77H345.6z M330.7,96.3
							h-29.7v-8.8h29.7V96.3z M345.6,106.8h-29.7v-8.8h29.7V106.8z M330.7,117.4h-29.7v-8.8h29.7V117.4z M345.6,127.9h-29.7v-8.8
							h29.7V127.9z M330.7,138.5h-29.7v-8.8h29.7V138.5z M345.6,149h-29.7v-8.8h29.7V149z M330.7,159.6h-29.7v-8.8h29.7V159.6z
							 M345.6,170.1h-29.7v-8.8h29.7V170.1z M330.7,180.7h-29.7v-8.8h29.7V180.7z M345.6,191.2h-29.7v-8.8h29.7V191.2z M330.7,201.8
							h-29.7V193h29.7V201.8z M345.6,212.4h-29.7v-8.8h29.7V212.4z M330.7,222.9h-29.7v-8.8h29.7V222.9z M345.6,233.5h-29.7v-8.8
							h29.7V233.5z M330.7,244h-29.7v-8.8h29.7V244z M345.6,254.6h-29.7v-8.8h29.7V254.6z M330.7,265.1h-29.7v-8.8h29.7V265.1z
							 M345.6,275.7h-29.7v-8.8h29.7V275.7z M330.7,286.2h-29.7v-8.8h29.7V286.2z M345.6,296.8h-29.7V288h29.7V296.8z M330.7,307.3
							h-29.7v-8.8h29.7V307.3z M345.6,317.9h-29.7v-8.8h29.7V317.9z M330.7,328.4h-29.7v-8.8h29.7V328.4z M206.4,319.7h29.7v8.8
							h-29.7V319.7z M221.2,309.1H251v8.8h-29.7V309.1z M206.4,298.6h29.7v8.8h-29.7V298.6z M221.2,288H251v8.8h-29.7V288z
							 M206.4,277.4h29.7v8.8h-29.7V277.4z M221.2,266.9H251v8.8h-29.7V266.9z M206.4,256.3h29.7v8.8h-29.7V256.3z M221.2,245.8H251
							v8.8h-29.7V245.8z M206.4,235.2h29.7v8.8h-29.7V235.2z M221.2,224.7H251v8.8h-29.7V224.7z M206.4,214.1h29.7v8.8h-29.7V214.1z
							 M221.2,203.6H251v8.8h-29.7V203.6z M206.4,193h29.7v8.8h-29.7V193z M221.2,182.5H251v8.8h-29.7V182.5z M206.4,171.9h29.7v8.8
							h-29.7V171.9z M221.2,161.4H251v8.8h-29.7V161.4z M206.4,150.8h29.7v8.8h-29.7V150.8z M221.2,140.3H251v8.8h-29.7V140.3z
							 M206.4,129.7h29.7v8.8h-29.7V129.7z M221.2,119.2H251v8.8h-29.7V119.2z M206.4,108.6h29.7v8.8h-29.7V108.6z M221.2,98.1H251
							v8.8h-29.7V98.1z M206.4,87.5h29.7v8.8h-29.7V87.5z M299.2,96.3h-29.7v-8.8h29.7V96.3z M314,106.8h-29.7v-8.8H314V106.8z
							 M299.2,117.4h-29.7v-8.8h29.7V117.4z M314,127.9h-29.7v-8.8H314V127.9z M299.2,138.5h-29.7v-8.8h29.7V138.5z M314,149h-29.7
							v-8.8H314V149z M299.2,159.6h-29.7v-8.8h29.7V159.6z M314,170.1h-29.7v-8.8H314V170.1z M299.2,180.7h-29.7v-8.8h29.7V180.7z
							 M314,191.2h-29.7v-8.8H314V191.2z M299.2,201.8h-29.7V193h29.7V201.8z M314,212.4h-29.7v-8.8H314V212.4z M299.2,222.9h-29.7
							v-8.8h29.7V222.9z M314,233.5h-29.7v-8.8H314V233.5z M299.2,244h-29.7v-8.8h29.7V244z M314,254.6h-29.7v-8.8H314V254.6z
							 M299.2,265.1h-29.7v-8.8h29.7V265.1z M314,275.7h-29.7v-8.8H314V275.7z M299.2,286.2h-29.7v-8.8h29.7V286.2z M314,296.8
							h-29.7V288H314V296.8z M299.2,307.3h-29.7v-8.8h29.7V307.3z M314,317.9h-29.7v-8.8H314V317.9z M252.8,309.1h29.7v8.8h-29.7
							V309.1z M237.9,298.6h29.7v8.8h-29.7V298.6z M252.8,288h29.7v8.8h-29.7V288z M237.9,277.4h29.7v8.8h-29.7V277.4z M252.8,266.9
							h29.7v8.8h-29.7V266.9z M237.9,256.3h29.7v8.8h-29.7V256.3z M252.8,245.8h29.7v8.8h-29.7V245.8z M237.9,235.2h29.7v8.8h-29.7
							V235.2z M252.8,224.7h29.7v8.8h-29.7V224.7z M237.9,214.1h29.7v8.8h-29.7V214.1z M252.8,203.6h29.7v8.8h-29.7V203.6z
							 M237.9,193h29.7v8.8h-29.7V193z M252.8,182.5h29.7v8.8h-29.7V182.5z M237.9,171.9h29.7v8.8h-29.7V171.9z M252.8,161.4h29.7
							v8.8h-29.7V161.4z M237.9,150.8h29.7v8.8h-29.7V150.8z M252.8,140.3h29.7v8.8h-29.7V140.3z M237.9,129.7h29.7v8.8h-29.7V129.7
							z M252.8,119.2h29.7v8.8h-29.7V119.2z M237.9,108.6h29.7v8.8h-29.7V108.6z M252.8,98.1h29.7v8.8h-29.7V98.1z M267.6,96.3
							h-29.7v-8.8h29.7V96.3z M237.9,319.7h29.7v8.8h-29.7V319.7z M269.4,319.7h29.7v8.8h-29.7V319.7z M314,77v8.8h-29.7V77H314z
							 M282.5,77v8.8h-29.7V77H282.5z M251,77v8.8h-29.7V77H251z M189.7,77h29.7v8.8h-29.7V77z M174.8,96.3v-8.8h29.7v8.8H174.8z
							 M189.7,98.1h29.7v8.8h-29.7V98.1z M174.8,117.4v-8.8h29.7v8.8H174.8z M189.7,119.2h29.7v8.8h-29.7V119.2z M174.8,138.5v-8.8
							h29.7v8.8H174.8z M189.7,140.3h29.7v8.8h-29.7V140.3z M174.8,159.6v-8.8h29.7v8.8H174.8z M189.7,161.4h29.7v8.8h-29.7V161.4z
							 M174.8,180.7v-8.8h29.7v8.8H174.8z M189.7,182.5h29.7v8.8h-29.7V182.5z M174.8,201.8V193h29.7v8.8H174.8z M189.7,203.6h29.7
							v8.8h-29.7V203.6z M174.8,222.9v-8.8h29.7v8.8H174.8z M189.7,224.7h29.7v8.8h-29.7V224.7z M174.8,244v-8.8h29.7v8.8H174.8z
							 M189.7,245.8h29.7v8.8h-29.7V245.8z M174.8,265.1v-8.8h29.7v8.8H174.8z M189.7,266.9h29.7v8.8h-29.7V266.9z M174.8,286.2
							v-8.8h29.7v8.8H174.8z M189.7,288h29.7v8.8h-29.7V288z M174.8,307.3v-8.8h29.7v8.8H174.8z M189.7,309.1h29.7v8.8h-29.7V309.1z
							 M174.8,328.4v-8.8h29.7v8.8H174.8z M189.7,339v-8.8h29.7v8.8H189.7z M221.2,339v-8.8H251v8.8H221.2z M252.8,339v-8.8h29.7
							v8.8H252.8z M284.3,339v-8.8H314v8.8H284.3z M315.8,339v-8.8h29.7v8.8H315.8z M377.1,330.2v8.8h-29.7v-8.8H377.1z
							 M362.2,328.4h-29.7v-8.8h29.7V328.4z M377.1,309.1v8.8h-29.7v-8.8H377.1z M362.2,307.3h-29.7v-8.8h29.7V307.3z M377.1,288
							v8.8h-29.7V288H377.1z M362.2,286.2h-29.7v-8.8h29.7V286.2z M377.1,266.9v8.8h-29.7v-8.8H377.1z M362.2,265.1h-29.7v-8.8h29.7
							V265.1z M377.1,245.8v8.8h-29.7v-8.8H377.1z M362.2,244h-29.7v-8.8h29.7V244z M377.1,224.7v8.8h-29.7v-8.8H377.1z
							 M362.2,222.9h-29.7v-8.8h29.7V222.9z M377.1,203.6v8.8h-29.7v-8.8H377.1z M362.2,201.8h-29.7V193h29.7V201.8z M377.1,182.5
							v8.8h-29.7v-8.8H377.1z M362.2,180.7h-29.7v-8.8h29.7V180.7z M377.1,161.4v8.8h-29.7v-8.8H377.1z M362.2,159.6h-29.7v-8.8
							h29.7V159.6z M377.1,140.3v8.8h-29.7v-8.8H377.1z M362.2,138.5h-29.7v-8.8h29.7V138.5z M377.1,119.2v8.8h-29.7v-8.8H377.1z
							 M362.2,117.4h-29.7v-8.8h29.7V117.4z M377.1,98.1v8.8h-29.7v-8.8H377.1z M362.2,96.3h-29.7v-8.8h29.7V96.3z M377.1,85.7
							h-29.7V77h29.7V85.7z"/>
					</g>
					<g>
						<path class="st8" d="M258.2,472.1c31.3,0,56.6-25.3,56.6-56.6H201.6C201.6,446.7,226.9,472.1,258.2,472.1z"/>
						<path class="st9" d="M258.2,358.9c-31.3,0-56.6,25.3-56.6,56.6h113.2C314.8,384.2,289.4,358.9,258.2,358.9z"/>
					</g>
					<g>
						<path class="st8" d="M384.1,472.1c31.3,0,56.6-25.3,56.6-56.6H327.5C327.5,446.7,352.9,472.1,384.1,472.1z"/>
						<path class="st9" d="M384.1,358.9c-31.3,0-56.6,25.3-56.6,56.6h113.2C440.7,384.2,415.4,358.9,384.1,358.9z"/>
					</g>
				</g>
				<g class="st73">
					<g class="st30">
						<polygon class="st1" points="234,207.7 234,267.7 174.2,328.2 113.6,328.2 						"/>
					</g>
					<g class="st30">
						<polygon class="st1" points="243.8,165.1 243.8,180 85.9,338 71.1,338 						"/>
					</g>
				</g>
			</g>
			<g>
				<polygon class="st61" points="251.5,100.3 -88.1,100.3 -67.8,120.6 231.2,120.6 				"/>
				<polygon class="st61" points="-88.1,100.3 -88.1,347.5 -67.8,327.2 -67.8,120.6 				"/>
			</g>
			<g>
				<polygon class="st58" points="244.8,107 -81.5,107 -67.8,120.6 231.2,120.6 				"/>
				<polygon class="st58" points="251.7,347.7 -93.4,347.7 -79,333.3 237.3,333.3 				"/>
				<polygon class="st58" points="-81.5,107 -81.5,340.8 -67.8,327.2 -67.8,120.6 				"/>
				<polygon class="st58" points="251.7,347.7 251.7,100.4 237.3,114.8 237.3,333.3 				"/>
			</g>
			<polygon class="st31" points="262.7,111.5 251.5,100.3 251.5,347.5 -88.1,347.5 -76.9,358.7 262.7,358.7 			"/>
		</g>
		<g>
			<g>
				<defs>
					<rect id="SVGID_17_" x="1097.4" y="262.6" width="430.9" height="297.7"/>
				</defs>
				<clipPath id="SVGID_18_">
					<use xlink:href="#SVGID_17_"  style="overflow:visible;"/>
				</clipPath>
				<g class="st74">
					<rect x="1083.9" y="418.9" class="st9" width="224.4" height="151.2"/>
					<rect x="1089" y="262.6" class="st4" width="219.3" height="155.9"/>
					<g>
						<rect x="1089.3" y="189.3" class="st8" width="18.5" height="524.7"/>
						<path class="st8" d="M1098.6,324.4c54.5,0,98.8-44.2,98.8-98.8H999.8C999.8,280.1,1044,324.4,1098.6,324.4z"/>
						<path class="st9" d="M1098.6,126.8c-54.5,0-98.8,44.2-98.8,98.8h197.5C1197.3,171.1,1153.1,126.8,1098.6,126.8z"/>
						<path class="st8" d="M1098.6,567.7c67.5,0,122.2-54.7,122.2-122.2H976.4C976.4,513,1031.1,567.7,1098.6,567.7z"/>
						<path class="st9" d="M1098.6,323.3c-67.5,0-122.2,54.7-122.2,122.2h244.4C1220.8,378,1166.1,323.3,1098.6,323.3z"/>
					</g>
				</g>
			</g>
			<g>
				<polygon class="st61" points="1321.7,580.1 1321.7,244.4 1301.6,264.5 1301.6,560 				"/>
				<polygon class="st58" points="1077.3,580.1 1077.3,244.4 1097.4,264.5 1097.4,560 				"/>
				<polygon class="st61" points="1321.7,244.4 1077.3,244.4 1097.4,264.5 1301.6,264.5 				"/>
				<polygon class="st58" points="1077.3,580.1 1321.7,580.1 1301.6,560 1097.4,560 				"/>
			</g>
			<g>
				<polygon class="st58" points="1315.1,573.5 1315.1,251 1301.6,264.5 1301.6,560 				"/>
				<polygon class="st61" points="1083.9,573.5 1083.9,251 1097.4,264.5 1097.4,560 				"/>
				<polygon class="st58" points="1315.1,251 1083.9,251 1097.4,264.5 1301.6,264.5 				"/>
				<polygon class="st61" points="1083.9,573.5 1315.1,573.5 1301.6,560 1097.4,560 				"/>
			</g>
		</g>
	</g>
</g>
</svg>
